<svg width="44" height="44" viewBox="0 0 44 44" fill="none" xmlns="http://www.w3.org/2000/svg">
<path d="M37.7344 23.8657L34.5665 18.3392C34.4258 18.0926 34.1442 17.9168 33.8626 17.9168H28.16V14.2562H28.9695C29.3568 14.2562 29.7089 14.0801 29.8847 13.7283C30.1312 13.3059 30.0254 12.7427 29.6735 12.4259L22.6687 6.44199C22.5982 6.40688 22.528 6.33641 22.4576 6.3013V4.2597H24.851C25.0975 4.2597 25.3087 4.04853 25.3087 3.80202L25.3089 2.14737C25.3089 1.90085 25.0978 1.68969 24.8513 1.68969H22.4578V1.37295C22.4578 1.12643 22.2817 0.915275 22.0355 0.880163C21.7538 0.845052 21.5076 1.05621 21.5076 1.33784V6.3011C21.4371 6.33621 21.3669 6.37157 21.2964 6.44179L14.2916 12.4257C13.9395 12.7425 13.8339 13.2706 14.0805 13.7281C14.2565 14.0448 14.6083 14.256 14.9956 14.256H15.8051V17.9166L10.173 17.9169C9.89137 17.9169 9.60974 18.0576 9.46906 18.3392L6.30119 23.8657C5.98445 24.429 6.37166 25.0979 7.00513 25.0979H7.6386V33.5107C7.6386 33.9683 7.9907 34.3202 8.44814 34.3202H19.5361C19.7473 34.3202 19.9585 34.1441 19.9585 33.8979V27.5619C19.9585 27.3507 20.1345 27.1395 20.3808 27.1395H23.6543C23.8654 27.1395 24.0766 27.3156 24.0766 27.5619V33.9331C24.0766 34.1442 24.2526 34.3554 24.4989 34.3554H35.5869C36.0446 34.3554 36.3964 34.0033 36.3964 33.5459L36.3969 25.0979H37.0304C37.629 25.0979 38.0163 24.3937 37.7346 23.8657L37.7344 23.8657ZM15.84 29.8145C15.84 30.0257 15.664 30.2369 15.4177 30.2369H12.144C11.9328 30.2369 11.7216 30.0608 11.7216 29.8145V27.5617C11.7216 27.3506 11.8977 27.1394 12.144 27.1394H15.4174C15.6286 27.1394 15.8398 27.3155 15.8398 27.5617L15.84 29.8145ZM22 19.7121C20.4865 19.7121 19.2544 18.48 19.2544 16.9665C19.2544 15.4531 20.4865 14.2209 22 14.2209C23.5135 14.2209 24.7456 15.4531 24.7456 16.9665C24.7456 18.48 23.5135 19.7121 22 19.7121ZM32.2784 29.8145C32.2784 30.0257 32.1024 30.2369 31.8561 30.2369H28.5826C28.3714 30.2369 28.1603 30.0608 28.1603 29.8145V27.5617C28.1603 27.3506 28.3363 27.1394 28.5826 27.1394H31.8561C32.0672 27.1394 32.2784 27.3155 32.2784 27.5617V29.8145Z" fill="url(#paint0_linear_52_295)"/>
<path d="M23.1616 16.9665L22.4223 16.6497V15.3474C22.4223 15.1362 22.2462 14.925 21.9999 14.925C21.7888 14.925 21.5776 15.1011 21.5776 15.3474V16.9313C21.5776 17.1074 21.6832 17.2481 21.8241 17.3185L22.8097 17.7408C22.8449 17.776 22.9153 17.776 22.9504 17.776C23.1265 17.776 23.2672 17.6704 23.3376 17.5294C23.4432 17.2832 23.3728 17.072 23.1616 16.9664V16.9665Z" fill="url(#paint1_linear_52_295)"/>
<defs>
<linearGradient id="paint0_linear_52_295" x1="22.0084" y1="0.876343" x2="22.0084" y2="34.3554" gradientUnits="userSpaceOnUse">
<stop stop-color="#48CAE4"/>
<stop offset="1" stop-color="#48CAE4"/>
</linearGradient>
<linearGradient id="paint1_linear_52_295" x1="22.4819" y1="14.925" x2="22.4819" y2="17.776" gradientUnits="userSpaceOnUse">
<stop stop-color="#48CAE4"/>
<stop offset="1" stop-color="#48CAE4"/>
</linearGradient>
</defs>
</svg>
