<svg width="41" height="46" viewBox="0 0 41 46" fill="none" xmlns="http://www.w3.org/2000/svg">
<path d="M8.8 25.1672V17.4392H3.33159V25.1672H4.70416V21.8994C4.70416 21.5945 4.95136 21.3473 5.25606 21.3473H7.69596C8.00092 21.3473 8.24812 21.5945 8.24812 21.8994V25.1672H8.8Z" fill="url(#paint0_linear_52_187)"/>
<path d="M8.80328 16.8985V13.1117H3.33125L1.43967 16.8985H8.80328Z" fill="url(#paint1_linear_52_187)"/>
<path d="M32.6681 25.1672V17.4392H27.1997V25.1672H27.9064V21.8994C27.9064 21.5945 28.1533 21.3473 28.4583 21.3473H30.8797C31.1847 21.3473 31.4316 21.5945 31.4316 21.8994V25.1672H32.6681Z" fill="url(#paint2_linear_52_187)"/>
<path d="M27.1967 16.8985H34.56L32.6684 13.1117H27.1964L27.1967 16.8985Z" fill="url(#paint3_linear_52_187)"/>
<path d="M5.25603 21.8999H7.68102V25.1677H5.25603V21.8999Z" fill="url(#paint4_linear_52_187)"/>
<path d="M28.4551 21.8999H30.8801V25.1677H28.4551V21.8999Z" fill="url(#paint5_linear_52_187)"/>
<path d="M30.88 25.7192H27.1964V28.0303H34.5597V25.7192H30.88Z" fill="url(#paint6_linear_52_187)"/>
<path d="M8.80329 25.7192H1.44V28.0303H8.80329V25.7192Z" fill="url(#paint7_linear_52_187)"/>
<path d="M26.6441 29.0096V12.144H9.34805V29.0096H15.3833V23.9422C15.3833 23.6372 15.6305 23.3903 15.9354 23.3903H20.0641C20.3691 23.3903 20.6163 23.6372 20.6163 23.9422V29.0096H26.6441ZM19.0705 22.4482H13.8229C13.2381 22.4495 12.6862 22.1771 12.3317 21.712C11.9772 21.2471 11.8607 20.6428 12.017 20.0794C12.1731 19.5159 12.5841 19.058 13.1273 18.8416C12.9217 17.9467 13.1363 17.007 13.7097 16.29C14.2834 15.5731 15.1531 15.1575 16.0714 15.1616C16.6233 15.1649 17.1636 15.3218 17.6315 15.6144C17.7191 15.4383 17.8266 15.2727 17.9519 15.1213L17.4919 14.6613C17.3841 14.5535 17.3841 14.3789 17.4919 14.2711C17.543 14.2185 17.6133 14.1887 17.6867 14.1887C17.7604 14.1887 17.8307 14.2185 17.8818 14.2711L18.3382 14.7201C18.7574 14.3743 19.2695 14.1605 19.8101 14.1055V13.4689C19.8101 13.3164 19.9338 13.193 20.0863 13.193C20.2385 13.193 20.3623 13.3164 20.3623 13.4689V14.1166C20.9029 14.1715 21.415 14.3853 21.8341 14.7311L22.2941 14.2711C22.3455 14.2185 22.4158 14.1887 22.4892 14.1887C22.5626 14.1887 22.633 14.2185 22.6843 14.2711C22.7919 14.3789 22.7919 14.5535 22.6843 14.6613L22.2243 15.1213C22.5683 15.541 22.7806 16.0531 22.8352 16.5931H23.4865C23.639 16.5931 23.7624 16.7166 23.7624 16.8691C23.7624 17.0216 23.639 17.145 23.4865 17.145H22.8463C22.7916 17.6851 22.5793 18.1973 22.2353 18.6172L22.6953 19.0772C22.8029 19.185 22.8029 19.3595 22.6953 19.4671C22.6438 19.5192 22.5734 19.5485 22.5003 19.5482C22.4268 19.5498 22.356 19.5205 22.3052 19.4671L21.8452 19.0071C21.677 19.1424 21.4945 19.2584 21.3005 19.3531C21.3798 19.5906 21.4206 19.8388 21.4219 20.0891C21.4249 20.7144 21.1783 21.315 20.737 21.7579C20.2955 22.2007 19.6956 22.4489 19.0705 22.4481L19.0705 22.4482Z" fill="url(#paint8_linear_52_187)"/>
<path d="M19.0449 17.752H19.0708C19.8817 17.7508 20.6356 18.1681 21.0653 18.8561C21.7032 18.5358 22.1471 17.9266 22.2564 17.2209C22.3658 16.5156 22.1273 15.8007 21.6162 15.3022C21.1051 14.8036 20.3846 14.5832 19.682 14.71C18.9794 14.837 18.3816 15.2957 18.0771 15.9416C18.602 16.4129 18.9445 17.0538 19.0449 17.7521L19.0449 17.752Z" fill="url(#paint9_linear_52_187)"/>
<path d="M15.9359 23.9424H20.0649V29.0098H15.9359V23.9424Z" fill="url(#paint10_linear_52_187)"/>
<path d="M19.0711 18.304H18.5192V18.1862L18.519 18.1864C18.519 17.308 18.0505 16.4966 17.2899 16.0574C16.5294 15.6182 15.5924 15.6182 14.8318 16.0574C14.0712 16.4966 13.6025 17.308 13.6025 18.1864C13.6025 18.5605 13.6893 18.9298 13.8566 19.2646H13.8197C13.4703 19.2635 13.1348 19.4014 12.8871 19.6478C12.6394 19.8942 12.4995 20.229 12.4987 20.5783C12.4987 20.9284 12.6379 21.264 12.8858 21.5111C13.1338 21.7583 13.4698 21.8967 13.8197 21.8957H19.0712C19.562 21.918 20.0407 21.7386 20.3957 21.399C20.751 21.0593 20.952 20.5894 20.952 20.098C20.952 19.6067 20.751 19.1367 20.3957 18.7971C20.0407 18.4577 19.5619 18.278 19.0712 18.3004L19.0711 18.304Z" fill="url(#paint11_linear_52_187)"/>
<path d="M20.0641 29.5616H7.83531V31.8763H28.1193V29.5616H20.0641Z" fill="url(#paint12_linear_52_187)"/>
<path d="M23.6784 4.92395H12.3223L6.64392 11.5847H29.3567L23.6784 4.92395Z" fill="url(#paint13_linear_52_187)"/>
<defs>
<linearGradient id="paint0_linear_52_187" x1="6.0658" y1="17.4392" x2="6.0658" y2="25.1672" gradientUnits="userSpaceOnUse">
<stop stop-color="#48CAE4"/>
<stop offset="1" stop-color="#48CAE4"/>
</linearGradient>
<linearGradient id="paint1_linear_52_187" x1="5.12147" y1="13.1117" x2="5.12147" y2="16.8985" gradientUnits="userSpaceOnUse">
<stop stop-color="#48CAE4"/>
<stop offset="1" stop-color="#48CAE4"/>
</linearGradient>
<linearGradient id="paint2_linear_52_187" x1="29.9339" y1="17.4392" x2="29.9339" y2="25.1672" gradientUnits="userSpaceOnUse">
<stop stop-color="#48CAE4"/>
<stop offset="1" stop-color="#48CAE4"/>
</linearGradient>
<linearGradient id="paint3_linear_52_187" x1="30.8782" y1="13.1117" x2="30.8782" y2="16.8985" gradientUnits="userSpaceOnUse">
<stop stop-color="#48CAE4"/>
<stop offset="1" stop-color="#48CAE4"/>
</linearGradient>
<linearGradient id="paint4_linear_52_187" x1="6.46852" y1="21.8999" x2="6.46852" y2="25.1677" gradientUnits="userSpaceOnUse">
<stop stop-color="#48CAE4"/>
<stop offset="1" stop-color="#48CAE4"/>
</linearGradient>
<linearGradient id="paint5_linear_52_187" x1="29.6676" y1="21.8999" x2="29.6676" y2="25.1677" gradientUnits="userSpaceOnUse">
<stop stop-color="#48CAE4"/>
<stop offset="1" stop-color="#48CAE4"/>
</linearGradient>
<linearGradient id="paint6_linear_52_187" x1="30.878" y1="25.7192" x2="30.878" y2="28.0303" gradientUnits="userSpaceOnUse">
<stop stop-color="#48CAE4"/>
<stop offset="1" stop-color="#48CAE4"/>
</linearGradient>
<linearGradient id="paint7_linear_52_187" x1="5.12165" y1="25.7192" x2="5.12165" y2="28.0303" gradientUnits="userSpaceOnUse">
<stop stop-color="#48CAE4"/>
<stop offset="1" stop-color="#48CAE4"/>
</linearGradient>
<linearGradient id="paint8_linear_52_187" x1="17.9961" y1="12.144" x2="17.9961" y2="29.0096" gradientUnits="userSpaceOnUse">
<stop stop-color="#48CAE4"/>
<stop offset="1" stop-color="#48CAE4"/>
</linearGradient>
<linearGradient id="paint9_linear_52_187" x1="20.1798" y1="14.6748" x2="20.1798" y2="18.8561" gradientUnits="userSpaceOnUse">
<stop stop-color="#48CAE4"/>
<stop offset="1" stop-color="#48CAE4"/>
</linearGradient>
<linearGradient id="paint10_linear_52_187" x1="18.0004" y1="23.9424" x2="18.0004" y2="29.0098" gradientUnits="userSpaceOnUse">
<stop stop-color="#48CAE4"/>
<stop offset="1" stop-color="#48CAE4"/>
</linearGradient>
<linearGradient id="paint11_linear_52_187" x1="16.7254" y1="15.728" x2="16.7254" y2="21.8975" gradientUnits="userSpaceOnUse">
<stop stop-color="#48CAE4"/>
<stop offset="1" stop-color="#48CAE4"/>
</linearGradient>
<linearGradient id="paint12_linear_52_187" x1="17.9773" y1="29.5616" x2="17.9773" y2="31.8763" gradientUnits="userSpaceOnUse">
<stop stop-color="#48CAE4"/>
<stop offset="1" stop-color="#48CAE4"/>
</linearGradient>
<linearGradient id="paint13_linear_52_187" x1="18.0003" y1="4.92395" x2="18.0003" y2="11.5847" gradientUnits="userSpaceOnUse">
<stop stop-color="#48CAE4"/>
<stop offset="1" stop-color="#48CAE4"/>
</linearGradient>
</defs>
</svg>
