<svg width="24" height="24" viewBox="0 0 24 24" fill="none" xmlns="http://www.w3.org/2000/svg">
<path d="M14.5 18.4909V19.2409H15.25V18.4909H14.5ZM4.5 18.4909H3.75V19.2409H4.5L4.5 18.4909ZM11.5 13.4941L11.5 14.2441L11.5 13.4941ZM7.5 13.4941L7.5 12.7441H7.5L7.5 13.4941ZM11.75 7.49804C11.75 8.73929 10.7432 9.74609 9.5 9.74609V11.2461C11.5708 11.2461 13.25 9.56864 13.25 7.49804H11.75ZM9.5 9.74609C8.25675 9.74609 7.25 8.73929 7.25 7.49804H5.75C5.75 9.56864 7.42925 11.2461 9.5 11.2461V9.74609ZM7.25 7.49804C7.25 6.2568 8.25675 5.25 9.5 5.25V3.75C7.42925 3.75 5.75 5.42745 5.75 7.49804H7.25ZM9.5 5.25C10.7432 5.25 11.75 6.2568 11.75 7.49804H13.25C13.25 5.42745 11.5708 3.75 9.5 3.75V5.25ZM14.5 17.7409L4.5 17.7409L4.5 19.2409L14.5 19.2409V17.7409ZM5.25 18.4909C5.25 18.4895 5.25 18.4881 5.25 18.4867C5.25 18.4853 5.25 18.4839 5.25 18.4826C5.25 18.4812 5.25 18.4798 5.25 18.4784C5.25 18.477 5.25 18.4756 5.25 18.4742C5.25 18.4729 5.25 18.4715 5.25 18.4701C5.25 18.4687 5.25 18.4673 5.25 18.4659C5.25 18.4645 5.25 18.4632 5.25 18.4618C5.25 18.4604 5.25 18.459 5.25 18.4576C5.25 18.4562 5.25 18.4549 5.25 18.4535C5.25 18.4521 5.25 18.4507 5.25 18.4493C5.25 18.4479 5.25 18.4465 5.25 18.4452C5.25 18.4438 5.25 18.4424 5.25 18.441C5.25 18.4396 5.25 18.4382 5.25 18.4369C5.25 18.4355 5.25 18.4341 5.25 18.4327C5.25 18.4313 5.25 18.4299 5.25 18.4286C5.25 18.4272 5.25 18.4258 5.25 18.4244C5.25 18.423 5.25 18.4217 5.25 18.4203C5.25 18.4189 5.25 18.4175 5.25 18.4161C5.25 18.4147 5.25 18.4134 5.25 18.412C5.25 18.4106 5.25 18.4092 5.25 18.4078C5.25 18.4065 5.25 18.4051 5.25 18.4037C5.25 18.4023 5.25 18.4009 5.25 18.3995C5.25 18.3982 5.25 18.3968 5.25 18.3954C5.25 18.394 5.25 18.3926 5.25 18.3913C5.25 18.3899 5.25 18.3885 5.25 18.3871C5.25 18.3857 5.25 18.3844 5.25 18.383C5.25 18.3816 5.25 18.3802 5.25 18.3788C5.25 18.3775 5.25 18.3761 5.25 18.3747C5.25 18.3733 5.25 18.3719 5.25 18.3706C5.25 18.3692 5.25 18.3678 5.25 18.3664C5.25 18.3651 5.25 18.3637 5.25 18.3623C5.25 18.3609 5.25 18.3595 5.25 18.3582C5.25 18.3568 5.25 18.3554 5.25 18.354C5.25 18.3526 5.25 18.3513 5.25 18.3499C5.25 18.3485 5.25 18.3471 5.25 18.3458C5.25 18.3444 5.25 18.343 5.25 18.3416C5.25 18.3403 5.25 18.3389 5.25 18.3375C5.25 18.3361 5.25 18.3347 5.25 18.3334C5.25 18.332 5.25 18.3306 5.25 18.3292C5.25 18.3279 5.25 18.3265 5.25 18.3251C5.25 18.3237 5.25 18.3224 5.25 18.321C5.25 18.3196 5.25 18.3182 5.25 18.3169C5.25 18.3155 5.25 18.3141 5.25 18.3127C5.25 18.3114 5.25 18.31 5.25 18.3086C5.25 18.3072 5.25 18.3059 5.25 18.3045C5.25 18.3031 5.25 18.3017 5.25 18.3004C5.25 18.299 5.25 18.2976 5.25 18.2962C5.25 18.2949 5.25 18.2935 5.25 18.2921C5.25 18.2907 5.25 18.2894 5.25 18.288C5.25 18.2866 5.25 18.2852 5.25 18.2839C5.25 18.2825 5.25 18.2811 5.25 18.2798C5.25 18.2784 5.25 18.277 5.25 18.2756C5.25 18.2743 5.25 18.2729 5.25 18.2715C5.25 18.2702 5.25 18.2688 5.25 18.2674C5.25 18.266 5.25 18.2647 5.25 18.2633C5.25 18.2619 5.25 18.2605 5.25 18.2592C5.25 18.2578 5.25 18.2564 5.25 18.2551C5.25 18.2537 5.25 18.2523 5.25 18.2509C5.25 18.2496 5.25 18.2482 5.25 18.2468C5.25 18.2455 5.25 18.2441 5.25 18.2427C5.25 18.2414 5.25 18.24 5.25 18.2386C5.25 18.2372 5.25 18.2359 5.25 18.2345C5.25 18.2331 5.25 18.2318 5.25 18.2304C5.25 18.229 5.25 18.2277 5.25 18.2263C5.25 18.2249 5.25 18.2236 5.25 18.2222C5.25 18.2208 5.25 18.2194 5.25 18.2181C5.25 18.2167 5.25 18.2153 5.25 18.214C5.25 18.2126 5.25 18.2112 5.25 18.2099C5.25 18.2085 5.25 18.2071 5.25 18.2058C5.25 18.2044 5.25 18.203 5.25 18.2017C5.25 18.2003 5.25 18.1989 5.25 18.1976C5.25 18.1962 5.25 18.1948 5.25 18.1935C5.25 18.1921 5.25 18.1907 5.25 18.1894C5.25 18.188 5.25 18.1866 5.25 18.1853C5.25 18.1839 5.25 18.1825 5.25 18.1812C5.25 18.1798 5.25 18.1784 5.25 18.1771C5.25 18.1757 5.25 18.1743 5.25 18.173C5.25 18.1716 5.25 18.1702 5.25 18.1689C5.25 18.1675 5.25 18.1661 5.25 18.1648C5.25 18.1634 5.25 18.1621 5.25 18.1607C5.25 18.1593 5.25 18.158 5.25 18.1566C5.25 18.1552 5.25 18.1539 5.25 18.1525C5.25 18.1511 5.25 18.1498 5.25 18.1484C5.25 18.1471 5.25 18.1457 5.25 18.1443C5.25 18.143 5.25 18.1416 5.25 18.1402C5.25 18.1389 5.25 18.1375 5.25 18.1361C5.25 18.1348 5.25 18.1334 5.25 18.1321C5.25 18.1307 5.25 18.1293 5.25 18.128C5.25 18.1266 5.25 18.1253 5.25 18.1239C5.25 18.1225 5.25 18.1212 5.25 18.1198C5.25 18.1184 5.25 18.1171 5.25 18.1157C5.25 18.1144 5.25 18.113 5.25 18.1116C5.25 18.1103 5.25 18.1089 5.25 18.1076C5.25 18.1062 5.25 18.1048 5.25 18.1035C5.25 18.1021 5.25 18.1008 5.25 18.0994C5.25 18.098 5.25 18.0967 5.25 18.0953C5.25 18.094 5.25 18.0926 5.25 18.0912C5.25 18.0899 5.25 18.0885 5.25 18.0872C5.25 18.0858 5.25 18.0844 5.25 18.0831C5.25 18.0817 5.25 18.0804 5.25 18.079C5.25 18.0777 5.25 18.0763 5.25 18.0749C5.25 18.0736 5.25 18.0722 5.25 18.0709C5.25 18.0695 5.25 18.0681 5.25 18.0668C5.25 18.0654 5.25 18.0641 5.25 18.0627C5.25 18.0614 5.25 18.06 5.25 18.0586C5.25 18.0573 5.25 18.0559 5.25 18.0546C5.25 18.0532 5.25 18.0519 5.25 18.0505C5.25 18.0492 5.25 18.0478 5.25 18.0464C5.25 18.0451 5.25 18.0437 5.25 18.0424C5.25 18.041 5.25 18.0397 5.25 18.0383C5.25 18.037 5.25 18.0356 5.25 18.0342C5.25 18.0329 5.25 18.0315 5.25 18.0302C5.25 18.0288 5.25 18.0275 5.25 18.0261C5.25 18.0248 5.25 18.0234 5.25 18.0221C5.25 18.0207 5.25 18.0193 5.25 18.018C5.25 18.0166 5.25 18.0153 5.25 18.0139C5.25 18.0126 5.25 18.0112 5.25 18.0099C5.25 18.0085 5.25 18.0072 5.25 18.0058C5.25 18.0045 5.25 18.0031 5.25 18.0018C5.25 18.0004 5.25 17.9991 5.25 17.9977C5.25 17.9963 5.25 17.995 5.25 17.9936C5.25 17.9923 5.25 17.9909 5.25 17.9896C5.25 17.9882 5.25 17.9869 5.25 17.9855C5.25 17.9842 5.25 17.9828 5.25 17.9815C5.25 17.9801 5.25 17.9788 5.25 17.9774C5.25 17.9761 5.25 17.9747 5.25 17.9734C5.25 17.972 5.25 17.9707 5.25 17.9693C5.25 17.968 5.25 17.9666 5.25 17.9653C5.25 17.9639 5.25 17.9626 5.25 17.9612C5.25 17.9599 5.25 17.9585 5.25 17.9572C5.25 17.9558 5.25 17.9545 5.25 17.9531C5.25 17.9518 5.25 17.9504 5.25 17.9491C5.25 17.9477 5.25 17.9464 5.25 17.9451C5.25 17.9437 5.25 17.9424 5.25 17.941C5.25 17.9397 5.25 17.9383 5.25 17.937C5.25 17.9356 5.25 17.9343 5.25 17.9329C5.25 17.9316 5.25 17.9302 5.25 17.9289C5.25 17.9275 5.25 17.9262 5.25 17.9248C5.25 17.9235 5.25 17.9222 5.25 17.9208C5.25 17.9195 5.25 17.9181 5.25 17.9168C5.25 17.9154 5.25 17.9141 5.25 17.9127C5.25 17.9114 5.25 17.91 5.25 17.9087C5.25 17.9074 5.25 17.906 5.25 17.9047C5.25 17.9033 5.25 17.902 5.25 17.9006C5.25 17.8993 5.25 17.8979 5.25 17.8966C5.25 17.8953 5.25 17.8939 5.25 17.8926C5.25 17.8912 5.25 17.8899 5.25 17.8885C5.25 17.8872 5.25 17.8858 5.25 17.8845C5.25 17.8832 5.25 17.8818 5.25 17.8805C5.25 17.8791 5.25 17.8778 5.25 17.8764C5.25 17.8751 5.25 17.8738 5.25 17.8724C5.25 17.8711 5.25 17.8697 5.25 17.8684C5.25 17.8671 5.25 17.8657 5.25 17.8644C5.25 17.863 5.25 17.8617 5.25 17.8603C5.25 17.859 5.25 17.8577 5.25 17.8563C5.25 17.855 5.25 17.8536 5.25 17.8523C5.25 17.851 5.25 17.8496 5.25 17.8483C5.25 17.8469 5.25 17.8456 5.25 17.8443C5.25 17.8429 5.25 17.8416 5.25 17.8402C5.25 17.8389 5.25 17.8376 5.25 17.8362C5.25 17.8349 5.25 17.8335 5.25 17.8322C5.25 17.8309 5.25 17.8295 5.25 17.8282C5.25 17.8269 5.25 17.8255 5.25 17.8242C5.25 17.8228 5.25 17.8215 5.25 17.8202C5.25 17.8188 5.25 17.8175 5.25 17.8162C5.25 17.8148 5.25 17.8135 5.25 17.8121C5.25 17.8108 5.25 17.8095 5.25 17.8081C5.25 17.8068 5.25 17.8055 5.25 17.8041C5.25 17.8028 5.25 17.8014 5.25 17.8001C5.25 17.7988 5.25 17.7974 5.25 17.7961C5.25 17.7948 5.25 17.7934 5.25 17.7921C5.25 17.7908 5.25 17.7894 5.25 17.7881C5.25 17.7868 5.25 17.7854 5.25 17.7841C5.25 17.7828 5.25 17.7814 5.25 17.7801C5.25 17.7788 5.25 17.7774 5.25 17.7761C5.25 17.7747 5.25 17.7734 5.25 17.7721C5.25 17.7707 5.25 17.7694 5.25 17.7681C5.25 17.7667 5.25 17.7654 5.25 17.7641C5.25 17.7627 5.25 17.7614 5.25 17.7601C5.25 17.7588 5.25 17.7574 5.25 17.7561C5.25 17.7548 5.25 17.7534 5.25 17.7521C5.25 17.7508 5.25 17.7494 5.25 17.7481C5.25 17.7468 5.25 17.7454 5.25 17.7441C5.25 17.7428 5.25 17.7414 5.25 17.7401C5.25 17.7388 5.25 17.7374 5.25 17.7361C5.25 17.7348 5.25 17.7335 5.25 17.7321C5.25 17.7308 5.25 17.7295 5.25 17.7281C5.25 17.7268 5.25 17.7255 5.25 17.7241C5.25 17.7228 5.25 17.7215 5.25 17.7202C5.25 17.7188 5.25 17.7175 5.25 17.7162C5.25 17.7148 5.25 17.7135 5.25 17.7122C5.25 17.7109 5.25 17.7095 5.25 17.7082C5.25 17.7069 5.25 17.7055 5.25 17.7042C5.25 17.7029 5.25 17.7016 5.25 17.7002C5.25 17.6989 5.25 17.6976 5.25 17.6962C5.25 17.6949 5.25 17.6936 5.25 17.6923C5.25 17.6909 5.25 17.6896 5.25 17.6883C5.25 17.687 5.25 17.6856 5.25 17.6843C5.25 17.683 5.25 17.6817 5.25 17.6803C5.25 17.679 5.25 17.6777 5.25 17.6764C5.25 17.675 5.25 17.6737 5.25 17.6724C5.25 17.6711 5.25 17.6697 5.25 17.6684C5.25 17.6671 5.25 17.6658 5.25 17.6644C5.25 17.6631 5.25 17.6618 5.25 17.6605C5.25 17.6591 5.25 17.6578 5.25 17.6565C5.25 17.6552 5.25 17.6538 5.25 17.6525C5.25 17.6512 5.25 17.6499 5.25 17.6485C5.25 17.6472 5.25 17.6459 5.25 17.6446C5.25 17.6433 5.25 17.6419 5.25 17.6406C5.25 17.6393 5.25 17.638 5.25 17.6366C5.25 17.6353 5.25 17.634 5.25 17.6327C5.25 17.6314 5.25 17.63 5.25 17.6287C5.25 17.6274 5.25 17.6261 5.25 17.6248C5.25 17.6234 5.25 17.6221 5.25 17.6208C5.25 17.6195 5.25 17.6182 5.25 17.6168C5.25 17.6155 5.25 17.6142 5.25 17.6129C5.25 17.6116 5.25 17.6102 5.25 17.6089C5.25 17.6076 5.25 17.6063 5.25 17.605C5.25 17.6036 5.25 17.6023 5.25 17.601C5.25 17.5997 5.25 17.5984 5.25 17.597C5.25 17.5957 5.25 17.5944 5.25 17.5931C5.25 17.5918 5.25 17.5905 5.25 17.5891C5.25 17.5878 5.25 17.5865 5.25 17.5852C5.25 17.5839 5.25 17.5826 5.25 17.5812C5.25 17.5799 5.25 17.5786 5.25 17.5773C5.25 17.576 5.25 17.5747 5.25 17.5733C5.25 17.572 5.25 17.5707 5.25 17.5694C5.25 17.5681 5.25 17.5668 5.25 17.5654C5.25 17.5641 5.25 17.5628 5.25 17.5615C5.25 17.5602 5.25 17.5589 5.25 17.5576C5.25 17.5562 5.25 17.5549 5.25 17.5536C5.25 17.5523 5.25 17.551 5.25 17.5497C5.25 17.5484 5.25 17.547 5.25 17.5457C5.25 17.5444 5.25 17.5431 5.25 17.5418C5.25 17.5405 5.25 17.5392 5.25 17.5378C5.25 17.5365 5.25 17.5352 5.25 17.5339C5.25 17.5326 5.25 17.5313 5.25 17.53C5.25 17.5287 5.25 17.5273 5.25 17.526C5.25 17.5247 5.25 17.5234 5.25 17.5221C5.25 17.5208 5.25 17.5195 5.25 17.5182C5.25 17.5169 5.25 17.5155 5.25 17.5142C5.25 17.5129 5.25 17.5116 5.25 17.5103C5.25 17.509 5.25 17.5077 5.25 17.5064C5.25 17.5051 5.25 17.5038 5.25 17.5024C5.25 17.5011 5.25 17.4998 5.25 17.4985C5.25 17.4972 5.25 17.4959 5.25 17.4946C5.25 17.4933 5.25 17.492 5.25 17.4907C5.25 17.4894 5.25 17.488 5.25 17.4867C5.25 17.4854 5.25 17.4841 5.25 17.4828C5.25 17.4815 5.25 17.4802 5.25 17.4789C5.25 17.4776 5.25 17.4763 5.25 17.475C5.25 17.4737 5.25 17.4724 5.25 17.471C5.25 17.4697 5.25 17.4684 5.25 17.4671C5.25 17.4658 5.25 17.4645 5.25 17.4632C5.25 17.4619 5.25 17.4606 5.25 17.4593C5.25 17.458 5.25 17.4567 5.25 17.4554C5.25 17.4541 5.25 17.4528 5.25 17.4515C5.25 17.4502 5.25 17.4489 5.25 17.4476C5.25 17.4462 5.25 17.4449 5.25 17.4436C5.25 17.4423 5.25 17.441 5.25 17.4397C5.25 17.4384 5.25 17.4371 5.25 17.4358C5.25 17.4345 5.25 17.4332 5.25 17.4319C5.25 17.4306 5.25 17.4293 5.25 17.428C5.25 17.4267 5.25 17.4254 5.25 17.4241C5.25 17.4228 5.25 17.4215 5.25 17.4202C5.25 17.4189 5.25 17.4176 5.25 17.4163C5.25 17.415 5.25 17.4137 5.25 17.4124C5.25 17.4111 5.25 17.4098 5.25 17.4085C5.25 17.4072 5.25 17.4059 5.25 17.4046C5.25 17.4033 5.25 17.402 5.25 17.4007C5.25 17.3994 5.25 17.3981 5.25 17.3968C5.25 17.3955 5.25 17.3942 5.25 17.3929C5.25 17.3916 5.25 17.3903 5.25 17.389C5.25 17.3877 5.25 17.3864 5.25 17.3851C5.25 17.3838 5.25 17.3825 5.25 17.3812C5.25 17.3799 5.25 17.3786 5.25 17.3773C5.25 17.376 5.25 17.3747 5.25 17.3734C5.25 17.3721 5.25 17.3708 5.25 17.3695C5.25 17.3682 5.25 17.3669 5.25 17.3656C5.25 17.3643 5.25 17.363 5.25 17.3617C5.25 17.3604 5.25 17.3592 5.25 17.3579C5.25 17.3566 5.25 17.3553 5.25 17.354C5.25 17.3527 5.25 17.3514 5.25 17.3501C5.25 17.3488 5.25 17.3475 5.25 17.3462C5.25 17.3449 5.25 17.3436 5.25 17.3423C5.25 17.341 5.25 17.3397 5.25 17.3384C5.25 17.3371 5.25 17.3358 5.25 17.3346C5.25 17.3333 5.25 17.332 5.25 17.3307C5.25 17.3294 5.25 17.3281 5.25 17.3268C5.25 17.3255 5.25 17.3242 5.25 17.3229C5.25 17.3216 5.25 17.3203 5.25 17.319C5.25 17.3178 5.25 17.3165 5.25 17.3152C5.25 17.3139 5.25 17.3126 5.25 17.3113C5.25 17.31 5.25 17.3087 5.25 17.3074C5.25 17.3061 5.25 17.3048 5.25 17.3036C5.25 17.3023 5.25 17.301 5.25 17.2997C5.25 17.2984 5.25 17.2971 5.25 17.2958C5.25 17.2945 5.25 17.2932 5.25 17.292C5.25 17.2907 5.25 17.2894 5.25 17.2881C5.25 17.2868 5.25 17.2855 5.25 17.2842C5.25 17.2829 5.25 17.2816 5.25 17.2804C5.25 17.2791 5.25 17.2778 5.25 17.2765C5.25 17.2752 5.25 17.2739 5.25 17.2726C5.25 17.2713 5.25 17.2701 5.25 17.2688C5.25 17.2675 5.25 17.2662 5.25 17.2649C5.25 17.2636 5.25 17.2623 5.25 17.2611C5.25 17.2598 5.25 17.2585 5.25 17.2572C5.25 17.2559 5.25 17.2546 5.25 17.2533C5.25 17.2521 5.25 17.2508 5.25 17.2495C5.25 17.2482 5.25 17.2469 5.25 17.2456C5.25 17.2444 5.25 17.2431 5.25 17.2418C5.25 17.2405 5.25 17.2392 5.25 17.2379C5.25 17.2366 5.25 17.2354 5.25 17.2341C5.25 17.2328 5.25 17.2315 5.25 17.2302C5.25 17.229 5.25 17.2277 5.25 17.2264C5.25 17.2251 5.25 17.2238 5.25 17.2225C5.25 17.2213 5.25 17.22 5.25 17.2187C5.25 17.2174 5.25 17.2161 5.25 17.2149C5.25 17.2136 5.25 17.2123 5.25 17.211C5.25 17.2097 5.25 17.2085 5.25 17.2072C5.25 17.2059 5.25 17.2046 5.25 17.2033C5.25 17.2021 5.25 17.2008 5.25 17.1995C5.25 17.1982 5.25 17.1969 5.25 17.1957C5.25 17.1944 5.25 17.1931 5.25 17.1918C5.25 17.1905 5.25 17.1893 5.25 17.188C5.25 17.1867 5.25 17.1854 5.25 17.1841C5.25 17.1829 5.25 17.1816 5.25 17.1803C5.25 17.179 5.25 17.1778 5.25 17.1765C5.25 17.1752 5.25 17.1739 5.25 17.1727C5.25 17.1714 5.25 17.1701 5.25 17.1688C5.25 17.1676 5.25 17.1663 5.25 17.165C5.25 17.1637 5.25 17.1624 5.25 17.1612C5.25 17.1599 5.25 17.1586 5.25 17.1573C5.25 17.1561 5.25 17.1548 5.25 17.1535C5.25 17.1522 5.25 17.151 5.25 17.1497C5.25 17.1484 5.25 17.1472 5.25 17.1459C5.25 17.1446 5.25 17.1433 5.25 17.1421C5.25 17.1408 5.25 17.1395 5.25 17.1382C5.25 17.137 5.25 17.1357 5.25 17.1344C5.25 17.1331 5.25 17.1319 5.25 17.1306C5.25 17.1293 5.25 17.1281 5.25 17.1268C5.25 17.1255 5.25 17.1242 5.25 17.123C5.25 17.1217 5.25 17.1204 5.25 17.1192C5.25 17.1179 5.25 17.1166 5.25 17.1154C5.25 17.1141 5.25 17.1128 5.25 17.1115C5.25 17.1103 5.25 17.109 5.25 17.1077C5.25 17.1065 5.25 17.1052 5.25 17.1039C5.25 17.1027 5.25 17.1014 5.25 17.1001C5.25 17.0988 5.25 17.0976 5.25 17.0963C5.25 17.095 5.25 17.0938 5.25 17.0925C5.25 17.0912 5.25 17.09 5.25 17.0887C5.25 17.0874 5.25 17.0862 5.25 17.0849C5.25 17.0836 5.25 17.0824 5.25 17.0811C5.25 17.0798 5.25 17.0786 5.25 17.0773C5.25 17.076 5.25 17.0748 5.25 17.0735C5.25 17.0722 5.25 17.071 5.25 17.0697C5.25 17.0684 5.25 17.0672 5.25 17.0659C5.25 17.0646 5.25 17.0634 5.25 17.0621C5.25 17.0609 5.25 17.0596 5.25 17.0583C5.25 17.0571 5.25 17.0558 5.25 17.0545C5.25 17.0533 5.25 17.052 5.25 17.0507C5.25 17.0495 5.25 17.0482 5.25 17.047C5.25 17.0457 5.25 17.0444 5.25 17.0432C5.25 17.0419 5.25 17.0406 5.25 17.0394C5.25 17.0381 5.25 17.0369 5.25 17.0356C5.25 17.0343 5.25 17.0331 5.25 17.0318C5.25 17.0305 5.25 17.0293 5.25 17.028C5.25 17.0268 5.25 17.0255 5.25 17.0242C5.25 17.023 5.25 17.0217 5.25 17.0205C5.25 17.0192 5.25 17.0179 5.25 17.0167C5.25 17.0154 5.25 17.0142 5.25 17.0129C5.25 17.0116 5.25 17.0104 5.25 17.0091C5.25 17.0079 5.25 17.0066 5.25 17.0054C5.25 17.0041 5.25 17.0028 5.25 17.0016C5.25 17.0003 5.25 16.9991 5.25 16.9978C5.25 16.9966 5.25 16.9953 5.25 16.994C5.25 16.9928 5.25 16.9915 5.25 16.9903C5.25 16.989 5.25 16.9878 5.25 16.9865C5.25 16.9852 5.25 16.984 5.25 16.9827C5.25 16.9815 5.25 16.9802 5.25 16.979C5.25 16.9777 5.25 16.9765 5.25 16.9752C5.25 16.9739 5.25 16.9727 5.25 16.9714C5.25 16.9702 5.25 16.9689 5.25 16.9677C5.25 16.9664 5.25 16.9652 5.25 16.9639C5.25 16.9627 5.25 16.9614 5.25 16.9602C5.25 16.9589 5.25 16.9576 5.25 16.9564C5.25 16.9551 5.25 16.9539 5.25 16.9526C5.25 16.9514 5.25 16.9501 5.25 16.9489C5.25 16.9476 5.25 16.9464 5.25 16.9451C5.25 16.9439 5.25 16.9426 5.25 16.9414C5.25 16.9401 5.25 16.9389 5.25 16.9376C5.25 16.9364 5.25 16.9351 5.25 16.9339C5.25 16.9326 5.25 16.9314 5.25 16.9301C5.25 16.9289 5.25 16.9276 5.25 16.9264C5.25 16.9251 5.25 16.9239 5.25 16.9226C5.25 16.9214 5.25 16.9201 5.25 16.9189C5.25 16.9176 5.25 16.9164 5.25 16.9151C5.25 16.9139 5.25 16.9126 5.25 16.9114C5.25 16.9101 5.25 16.9089 5.25 16.9077C5.25 16.9064 5.25 16.9052 5.25 16.9039C5.25 16.9027 5.25 16.9014 5.25 16.9002C5.25 16.8989 5.25 16.8977 5.25 16.8964C5.25 16.8952 5.25 16.8939 5.25 16.8927C5.25 16.8915 5.25 16.8902 5.25 16.889C5.25 16.8877 5.25 16.8865 5.25 16.8852C5.25 16.884 5.25 16.8827 5.25 16.8815C5.25 16.8803 5.25 16.879 5.25 16.8778C5.25 16.8765 5.25 16.8753 5.25 16.874C5.25 16.8728 5.25 16.8716 5.25 16.8703C5.25 16.8691 5.25 16.8678 5.25 16.8666C5.25 16.8653 5.25 16.8641 5.25 16.8629C5.25 16.8616 5.25 16.8604 5.25 16.8591C5.25 16.8579 5.25 16.8567 5.25 16.8554C5.25 16.8542 5.25 16.8529 5.25 16.8517C5.25 16.8504 5.25 16.8492 5.25 16.848C5.25 16.8467 5.25 16.8455 5.25 16.8442C5.25 16.843 5.25 16.8418 5.25 16.8405C5.25 16.8393 5.25 16.8381 5.25 16.8368C5.25 16.8356 5.25 16.8343 5.25 16.8331C5.25 16.8319 5.25 16.8306 5.25 16.8294C5.25 16.8281 5.25 16.8269 5.25 16.8257C5.25 16.8244 5.25 16.8232 5.25 16.822C5.25 16.8207 5.25 16.8195 5.25 16.8183C5.25 16.817 5.25 16.8158 5.25 16.8145C5.25 16.8133 5.25 16.8121 5.25 16.8108C5.25 16.8096 5.25 16.8084 5.25 16.8071C5.25 16.8059 5.25 16.8047 5.25 16.8034C5.25 16.8022 5.25 16.801 5.25 16.7997C5.25 16.7985 5.25 16.7973 5.25 16.796C5.25 16.7948 5.25 16.7936 5.25 16.7923C5.25 16.7911 5.25 16.7899 5.25 16.7886C5.25 16.7874 5.25 16.7862 5.25 16.7849C5.25 16.7837 5.25 16.7825 5.25 16.7812C5.25 16.78 5.25 16.7788 5.25 16.7775C5.25 16.7763 5.25 16.7751 5.25 16.7738C5.25 16.7726 5.25 16.7714 5.25 16.7702C5.25 16.7689 5.25 16.7677 5.25 16.7665C5.25 16.7652 5.25 16.764 5.25 16.7628C5.25 16.7615 5.25 16.7603 5.25 16.7591C5.25 16.7579 5.25 16.7566 5.25 16.7554C5.25 16.7542 5.25 16.7529 5.25 16.7517C5.25 16.7505 5.25 16.7493 5.25 16.748C5.25 16.7468 5.25 16.7456 5.25 16.7443C5.25 16.7431 5.25 16.7419 5.25 16.7407C5.25 16.7394 5.25 16.7382 5.25 16.737C5.25 16.7358 5.25 16.7345 5.25 16.7333C5.25 16.7321 5.25 16.7309 5.25 16.7296C5.25 16.7284 5.25 16.7272 5.25 16.726C5.25 16.7247 5.25 16.7235 5.25 16.7223C5.25 16.7211 5.25 16.7198 5.25 16.7186C5.25 16.7174 5.25 16.7162 5.25 16.7149C5.25 16.7137 5.25 16.7125 5.25 16.7113C5.25 16.71 5.25 16.7088 5.25 16.7076C5.25 16.7064 5.25 16.7051 5.25 16.7039C5.25 16.7027 5.25 16.7015 5.25 16.7003C5.25 16.699 5.25 16.6978 5.25 16.6966C5.25 16.6954 5.25 16.6942 5.25 16.6929C5.25 16.6917 5.25 16.6905 5.25 16.6893C5.25 16.6881 5.25 16.6868 5.25 16.6856C5.25 16.6844 5.25 16.6832 5.25 16.682C5.25 16.6807 5.25 16.6795 5.25 16.6783C5.25 16.6771 5.25 16.6759 5.25 16.6746C5.25 16.6734 5.25 16.6722 5.25 16.671C5.25 16.6698 5.25 16.6685 5.25 16.6673C5.25 16.6661 5.25 16.6649 5.25 16.6637C5.25 16.6625 5.25 16.6612 5.25 16.66C5.25 16.6588 5.25 16.6576 5.25 16.6564C5.25 16.6552 5.25 16.6539 5.25 16.6527C5.25 16.6515 5.25 16.6503 5.25 16.6491C5.25 16.6479 5.25 16.6467 5.25 16.6454C5.25 16.6442 5.25 16.643 5.25 16.6418C5.25 16.6406 5.25 16.6394 5.25 16.6382C5.25 16.6369 5.25 16.6357 5.25 16.6345C5.25 16.6333 5.25 16.6321 5.25 16.6309C5.25 16.6297 5.25 16.6284 5.25 16.6272C5.25 16.626 5.25 16.6248 5.25 16.6236C5.25 16.6224 5.25 16.6212 5.25 16.62C5.25 16.6187 5.25 16.6175 5.25 16.6163C5.25 16.6151 5.25 16.6139 5.25 16.6127C5.25 16.6115 5.25 16.6103 5.25 16.6091C5.25 16.6079 5.25 16.6066 5.25 16.6054C5.25 16.6042 5.25 16.603 5.25 16.6018C5.25 16.6006 5.25 16.5994 5.25 16.5982C5.25 16.597 5.25 16.5958 5.25 16.5946C5.25 16.5933 5.25 16.5921 5.25 16.5909C5.25 16.5897 5.25 16.5885 5.25 16.5873C5.25 16.5861 5.25 16.5849 5.25 16.5837C5.25 16.5825 5.25 16.5813 5.25 16.5801C5.25 16.5789 5.25 16.5777 5.25 16.5764C5.25 16.5752 5.25 16.574 5.25 16.5728C5.25 16.5716 5.25 16.5704 5.25 16.5692C5.25 16.568 5.25 16.5668 5.25 16.5656C5.25 16.5644 5.25 16.5632 5.25 16.562C5.25 16.5608 5.25 16.5596 5.25 16.5584C5.25 16.5572 5.25 16.556 5.25 16.5548C5.25 16.5536 5.25 16.5524 5.25 16.5512C5.25 16.55 5.25 16.5488 5.25 16.5476C5.25 16.5464 5.25 16.5451 5.25 16.5439C5.25 16.5427 5.25 16.5415 5.25 16.5403C5.25 16.5391 5.25 16.5379 5.25 16.5367C5.25 16.5355 5.25 16.5343 5.25 16.5331C5.25 16.5319 5.25 16.5307 5.25 16.5295C5.25 16.5283 5.25 16.5271 5.25 16.5259C5.25 16.5247 5.25 16.5235 5.25 16.5223C5.25 16.5211 5.25 16.5199 5.25 16.5188C5.25 16.5176 5.25 16.5164 5.25 16.5152C5.25 16.514 5.25 16.5128 5.25 16.5116C5.25 16.5104 5.25 16.5092 5.25 16.508C5.25 16.5068 5.25 16.5056 5.25 16.5044C5.25 16.5032 5.25 16.502 5.25 16.5008C5.25 16.4996 5.25 16.4984 5.25 16.4972C5.25 16.496 5.25 16.4948 5.25 16.4936H3.75C3.75 16.4948 3.75 16.496 3.75 16.4972C3.75 16.4984 3.75 16.4996 3.75 16.5008C3.75 16.502 3.75 16.5032 3.75 16.5044C3.75 16.5056 3.75 16.5068 3.75 16.508C3.75 16.5092 3.75 16.5104 3.75 16.5116C3.75 16.5128 3.75 16.514 3.75 16.5152C3.75 16.5164 3.75 16.5176 3.75 16.5188C3.75 16.5199 3.75 16.5211 3.75 16.5223C3.75 16.5235 3.75 16.5247 3.75 16.5259C3.75 16.5271 3.75 16.5283 3.75 16.5295C3.75 16.5307 3.75 16.5319 3.75 16.5331C3.75 16.5343 3.75 16.5355 3.75 16.5367C3.75 16.5379 3.75 16.5391 3.75 16.5403C3.75 16.5415 3.75 16.5427 3.75 16.5439C3.75 16.5451 3.75 16.5464 3.75 16.5476C3.75 16.5488 3.75 16.55 3.75 16.5512C3.75 16.5524 3.75 16.5536 3.75 16.5548C3.75 16.556 3.75 16.5572 3.75 16.5584C3.75 16.5596 3.75 16.5608 3.75 16.562C3.75 16.5632 3.75 16.5644 3.75 16.5656C3.75 16.5668 3.75 16.568 3.75 16.5692C3.75 16.5704 3.75 16.5716 3.75 16.5728C3.75 16.574 3.75 16.5752 3.75 16.5764C3.75 16.5777 3.75 16.5789 3.75 16.5801C3.75 16.5813 3.75 16.5825 3.75 16.5837C3.75 16.5849 3.75 16.5861 3.75 16.5873C3.75 16.5885 3.75 16.5897 3.75 16.5909C3.75 16.5921 3.75 16.5933 3.75 16.5946C3.75 16.5958 3.75 16.597 3.75 16.5982C3.75 16.5994 3.75 16.6006 3.75 16.6018C3.75 16.603 3.75 16.6042 3.75 16.6054C3.75 16.6066 3.75 16.6079 3.75 16.6091C3.75 16.6103 3.75 16.6115 3.75 16.6127C3.75 16.6139 3.75 16.6151 3.75 16.6163C3.75 16.6175 3.75 16.6187 3.75 16.62C3.75 16.6212 3.75 16.6224 3.75 16.6236C3.75 16.6248 3.75 16.626 3.75 16.6272C3.75 16.6284 3.75 16.6297 3.75 16.6309C3.75 16.6321 3.75 16.6333 3.75 16.6345C3.75 16.6357 3.75 16.6369 3.75 16.6382C3.75 16.6394 3.75 16.6406 3.75 16.6418C3.75 16.643 3.75 16.6442 3.75 16.6454C3.75 16.6467 3.75 16.6479 3.75 16.6491C3.75 16.6503 3.75 16.6515 3.75 16.6527C3.75 16.6539 3.75 16.6552 3.75 16.6564C3.75 16.6576 3.75 16.6588 3.75 16.66C3.75 16.6612 3.75 16.6625 3.75 16.6637C3.75 16.6649 3.75 16.6661 3.75 16.6673C3.75 16.6685 3.75 16.6698 3.75 16.671C3.75 16.6722 3.75 16.6734 3.75 16.6746C3.75 16.6759 3.75 16.6771 3.75 16.6783C3.75 16.6795 3.75 16.6807 3.75 16.682C3.75 16.6832 3.75 16.6844 3.75 16.6856C3.75 16.6868 3.75 16.6881 3.75 16.6893C3.75 16.6905 3.75 16.6917 3.75 16.6929C3.75 16.6942 3.75 16.6954 3.75 16.6966C3.75 16.6978 3.75 16.699 3.75 16.7003C3.75 16.7015 3.75 16.7027 3.75 16.7039C3.75 16.7051 3.75 16.7064 3.75 16.7076C3.75 16.7088 3.75 16.71 3.75 16.7113C3.75 16.7125 3.75 16.7137 3.75 16.7149C3.75 16.7162 3.75 16.7174 3.75 16.7186C3.75 16.7198 3.75 16.7211 3.75 16.7223C3.75 16.7235 3.75 16.7247 3.75 16.726C3.75 16.7272 3.75 16.7284 3.75 16.7296C3.75 16.7309 3.75 16.7321 3.75 16.7333C3.75 16.7345 3.75 16.7358 3.75 16.737C3.75 16.7382 3.75 16.7394 3.75 16.7407C3.75 16.7419 3.75 16.7431 3.75 16.7443C3.75 16.7456 3.75 16.7468 3.75 16.748C3.75 16.7493 3.75 16.7505 3.75 16.7517C3.75 16.7529 3.75 16.7542 3.75 16.7554C3.75 16.7566 3.75 16.7579 3.75 16.7591C3.75 16.7603 3.75 16.7615 3.75 16.7628C3.75 16.764 3.75 16.7652 3.75 16.7665C3.75 16.7677 3.75 16.7689 3.75 16.7702C3.75 16.7714 3.75 16.7726 3.75 16.7738C3.75 16.7751 3.75 16.7763 3.75 16.7775C3.75 16.7788 3.75 16.78 3.75 16.7812C3.75 16.7825 3.75 16.7837 3.75 16.7849C3.75 16.7862 3.75 16.7874 3.75 16.7886C3.75 16.7899 3.75 16.7911 3.75 16.7923C3.75 16.7936 3.75 16.7948 3.75 16.796C3.75 16.7973 3.75 16.7985 3.75 16.7997C3.75 16.801 3.75 16.8022 3.75 16.8034C3.75 16.8047 3.75 16.8059 3.75 16.8071C3.75 16.8084 3.75 16.8096 3.75 16.8108C3.75 16.8121 3.75 16.8133 3.75 16.8145C3.75 16.8158 3.75 16.817 3.75 16.8183C3.75 16.8195 3.75 16.8207 3.75 16.822C3.75 16.8232 3.75 16.8244 3.75 16.8257C3.75 16.8269 3.75 16.8281 3.75 16.8294C3.75 16.8306 3.75 16.8319 3.75 16.8331C3.75 16.8343 3.75 16.8356 3.75 16.8368C3.75 16.8381 3.75 16.8393 3.75 16.8405C3.75 16.8418 3.75 16.843 3.75 16.8442C3.75 16.8455 3.75 16.8467 3.75 16.848C3.75 16.8492 3.75 16.8504 3.75 16.8517C3.75 16.8529 3.75 16.8542 3.75 16.8554C3.75 16.8567 3.75 16.8579 3.75 16.8591C3.75 16.8604 3.75 16.8616 3.75 16.8629C3.75 16.8641 3.75 16.8653 3.75 16.8666C3.75 16.8678 3.75 16.8691 3.75 16.8703C3.75 16.8716 3.75 16.8728 3.75 16.874C3.75 16.8753 3.75 16.8765 3.75 16.8778C3.75 16.879 3.75 16.8803 3.75 16.8815C3.75 16.8827 3.75 16.884 3.75 16.8852C3.75 16.8865 3.75 16.8877 3.75 16.889C3.75 16.8902 3.75 16.8915 3.75 16.8927C3.75 16.8939 3.75 16.8952 3.75 16.8964C3.75 16.8977 3.75 16.8989 3.75 16.9002C3.75 16.9014 3.75 16.9027 3.75 16.9039C3.75 16.9052 3.75 16.9064 3.75 16.9077C3.75 16.9089 3.75 16.9101 3.75 16.9114C3.75 16.9126 3.75 16.9139 3.75 16.9151C3.75 16.9164 3.75 16.9176 3.75 16.9189C3.75 16.9201 3.75 16.9214 3.75 16.9226C3.75 16.9239 3.75 16.9251 3.75 16.9264C3.75 16.9276 3.75 16.9289 3.75 16.9301C3.75 16.9314 3.75 16.9326 3.75 16.9339C3.75 16.9351 3.75 16.9364 3.75 16.9376C3.75 16.9389 3.75 16.9401 3.75 16.9414C3.75 16.9426 3.75 16.9439 3.75 16.9451C3.75 16.9464 3.75 16.9476 3.75 16.9489C3.75 16.9501 3.75 16.9514 3.75 16.9526C3.75 16.9539 3.75 16.9551 3.75 16.9564C3.75 16.9576 3.75 16.9589 3.75 16.9602C3.75 16.9614 3.75 16.9627 3.75 16.9639C3.75 16.9652 3.75 16.9664 3.75 16.9677C3.75 16.9689 3.75 16.9702 3.75 16.9714C3.75 16.9727 3.75 16.9739 3.75 16.9752C3.75 16.9765 3.75 16.9777 3.75 16.979C3.75 16.9802 3.75 16.9815 3.75 16.9827C3.75 16.984 3.75 16.9852 3.75 16.9865C3.75 16.9878 3.75 16.989 3.75 16.9903C3.75 16.9915 3.75 16.9928 3.75 16.994C3.75 16.9953 3.75 16.9966 3.75 16.9978C3.75 16.9991 3.75 17.0003 3.75 17.0016C3.75 17.0028 3.75 17.0041 3.75 17.0054C3.75 17.0066 3.75 17.0079 3.75 17.0091C3.75 17.0104 3.75 17.0116 3.75 17.0129C3.75 17.0142 3.75 17.0154 3.75 17.0167C3.75 17.0179 3.75 17.0192 3.75 17.0205C3.75 17.0217 3.75 17.023 3.75 17.0242C3.75 17.0255 3.75 17.0268 3.75 17.028C3.75 17.0293 3.75 17.0305 3.75 17.0318C3.75 17.0331 3.75 17.0343 3.75 17.0356C3.75 17.0369 3.75 17.0381 3.75 17.0394C3.75 17.0406 3.75 17.0419 3.75 17.0432C3.75 17.0444 3.75 17.0457 3.75 17.047C3.75 17.0482 3.75 17.0495 3.75 17.0507C3.75 17.052 3.75 17.0533 3.75 17.0545C3.75 17.0558 3.75 17.0571 3.75 17.0583C3.75 17.0596 3.75 17.0609 3.75 17.0621C3.75 17.0634 3.75 17.0646 3.75 17.0659C3.75 17.0672 3.75 17.0684 3.75 17.0697C3.75 17.071 3.75 17.0722 3.75 17.0735C3.75 17.0748 3.75 17.076 3.75 17.0773C3.75 17.0786 3.75 17.0798 3.75 17.0811C3.75 17.0824 3.75 17.0836 3.75 17.0849C3.75 17.0862 3.75 17.0874 3.75 17.0887C3.75 17.09 3.75 17.0912 3.75 17.0925C3.75 17.0938 3.75 17.095 3.75 17.0963C3.75 17.0976 3.75 17.0988 3.75 17.1001C3.75 17.1014 3.75 17.1027 3.75 17.1039C3.75 17.1052 3.75 17.1065 3.75 17.1077C3.75 17.109 3.75 17.1103 3.75 17.1115C3.75 17.1128 3.75 17.1141 3.75 17.1154C3.75 17.1166 3.75 17.1179 3.75 17.1192C3.75 17.1204 3.75 17.1217 3.75 17.123C3.75 17.1242 3.75 17.1255 3.75 17.1268C3.75 17.1281 3.75 17.1293 3.75 17.1306C3.75 17.1319 3.75 17.1331 3.75 17.1344C3.75 17.1357 3.75 17.137 3.75 17.1382C3.75 17.1395 3.75 17.1408 3.75 17.1421C3.75 17.1433 3.75 17.1446 3.75 17.1459C3.75 17.1472 3.75 17.1484 3.75 17.1497C3.75 17.151 3.75 17.1522 3.75 17.1535C3.75 17.1548 3.75 17.1561 3.75 17.1573C3.75 17.1586 3.75 17.1599 3.75 17.1612C3.75 17.1624 3.75 17.1637 3.75 17.165C3.75 17.1663 3.75 17.1676 3.75 17.1688C3.75 17.1701 3.75 17.1714 3.75 17.1727C3.75 17.1739 3.75 17.1752 3.75 17.1765C3.75 17.1778 3.75 17.179 3.75 17.1803C3.75 17.1816 3.75 17.1829 3.75 17.1841C3.75 17.1854 3.75 17.1867 3.75 17.188C3.75 17.1893 3.75 17.1905 3.75 17.1918C3.75 17.1931 3.75 17.1944 3.75 17.1957C3.75 17.1969 3.75 17.1982 3.75 17.1995C3.75 17.2008 3.75 17.2021 3.75 17.2033C3.75 17.2046 3.75 17.2059 3.75 17.2072C3.75 17.2085 3.75 17.2097 3.75 17.211C3.75 17.2123 3.75 17.2136 3.75 17.2149C3.75 17.2161 3.75 17.2174 3.75 17.2187C3.75 17.22 3.75 17.2213 3.75 17.2225C3.75 17.2238 3.75 17.2251 3.75 17.2264C3.75 17.2277 3.75 17.229 3.75 17.2302C3.75 17.2315 3.75 17.2328 3.75 17.2341C3.75 17.2354 3.75 17.2366 3.75 17.2379C3.75 17.2392 3.75 17.2405 3.75 17.2418C3.75 17.2431 3.75 17.2444 3.75 17.2456C3.75 17.2469 3.75 17.2482 3.75 17.2495C3.75 17.2508 3.75 17.2521 3.75 17.2533C3.75 17.2546 3.75 17.2559 3.75 17.2572C3.75 17.2585 3.75 17.2598 3.75 17.2611C3.75 17.2623 3.75 17.2636 3.75 17.2649C3.75 17.2662 3.75 17.2675 3.75 17.2688C3.75 17.2701 3.75 17.2713 3.75 17.2726C3.75 17.2739 3.75 17.2752 3.75 17.2765C3.75 17.2778 3.75 17.2791 3.75 17.2804C3.75 17.2816 3.75 17.2829 3.75 17.2842C3.75 17.2855 3.75 17.2868 3.75 17.2881C3.75 17.2894 3.75 17.2907 3.75 17.292C3.75 17.2932 3.75 17.2945 3.75 17.2958C3.75 17.2971 3.75 17.2984 3.75 17.2997C3.75 17.301 3.75 17.3023 3.75 17.3036C3.75 17.3048 3.75 17.3061 3.75 17.3074C3.75 17.3087 3.75 17.31 3.75 17.3113C3.75 17.3126 3.75 17.3139 3.75 17.3152C3.75 17.3165 3.75 17.3178 3.75 17.319C3.75 17.3203 3.75 17.3216 3.75 17.3229C3.75 17.3242 3.75 17.3255 3.75 17.3268C3.75 17.3281 3.75 17.3294 3.75 17.3307C3.75 17.332 3.75 17.3333 3.75 17.3346C3.75 17.3358 3.75 17.3371 3.75 17.3384C3.75 17.3397 3.75 17.341 3.75 17.3423C3.75 17.3436 3.75 17.3449 3.75 17.3462C3.75 17.3475 3.75 17.3488 3.75 17.3501C3.75 17.3514 3.75 17.3527 3.75 17.354C3.75 17.3553 3.75 17.3566 3.75 17.3579C3.75 17.3592 3.75 17.3604 3.75 17.3617C3.75 17.363 3.75 17.3643 3.75 17.3656C3.75 17.3669 3.75 17.3682 3.75 17.3695C3.75 17.3708 3.75 17.3721 3.75 17.3734C3.75 17.3747 3.75 17.376 3.75 17.3773C3.75 17.3786 3.75 17.3799 3.75 17.3812C3.75 17.3825 3.75 17.3838 3.75 17.3851C3.75 17.3864 3.75 17.3877 3.75 17.389C3.75 17.3903 3.75 17.3916 3.75 17.3929C3.75 17.3942 3.75 17.3955 3.75 17.3968C3.75 17.3981 3.75 17.3994 3.75 17.4007C3.75 17.402 3.75 17.4033 3.75 17.4046C3.75 17.4059 3.75 17.4072 3.75 17.4085C3.75 17.4098 3.75 17.4111 3.75 17.4124C3.75 17.4137 3.75 17.415 3.75 17.4163C3.75 17.4176 3.75 17.4189 3.75 17.4202C3.75 17.4215 3.75 17.4228 3.75 17.4241C3.75 17.4254 3.75 17.4267 3.75 17.428C3.75 17.4293 3.75 17.4306 3.75 17.4319C3.75 17.4332 3.75 17.4345 3.75 17.4358C3.75 17.4371 3.75 17.4384 3.75 17.4397C3.75 17.441 3.75 17.4423 3.75 17.4436C3.75 17.4449 3.75 17.4462 3.75 17.4476C3.75 17.4489 3.75 17.4502 3.75 17.4515C3.75 17.4528 3.75 17.4541 3.75 17.4554C3.75 17.4567 3.75 17.458 3.75 17.4593C3.75 17.4606 3.75 17.4619 3.75 17.4632C3.75 17.4645 3.75 17.4658 3.75 17.4671C3.75 17.4684 3.75 17.4697 3.75 17.471C3.75 17.4724 3.75 17.4737 3.75 17.475C3.75 17.4763 3.75 17.4776 3.75 17.4789C3.75 17.4802 3.75 17.4815 3.75 17.4828C3.75 17.4841 3.75 17.4854 3.75 17.4867C3.75 17.488 3.75 17.4894 3.75 17.4907C3.75 17.492 3.75 17.4933 3.75 17.4946C3.75 17.4959 3.75 17.4972 3.75 17.4985C3.75 17.4998 3.75 17.5011 3.75 17.5024C3.75 17.5038 3.75 17.5051 3.75 17.5064C3.75 17.5077 3.75 17.509 3.75 17.5103C3.75 17.5116 3.75 17.5129 3.75 17.5142C3.75 17.5155 3.75 17.5169 3.75 17.5182C3.75 17.5195 3.75 17.5208 3.75 17.5221C3.75 17.5234 3.75 17.5247 3.75 17.526C3.75 17.5273 3.75 17.5287 3.75 17.53C3.75 17.5313 3.75 17.5326 3.75 17.5339C3.75 17.5352 3.75 17.5365 3.75 17.5378C3.75 17.5392 3.75 17.5405 3.75 17.5418C3.75 17.5431 3.75 17.5444 3.75 17.5457C3.75 17.547 3.75 17.5484 3.75 17.5497C3.75 17.551 3.75 17.5523 3.75 17.5536C3.75 17.5549 3.75 17.5562 3.75 17.5576C3.75 17.5589 3.75 17.5602 3.75 17.5615C3.75 17.5628 3.75 17.5641 3.75 17.5654C3.75 17.5668 3.75 17.5681 3.75 17.5694C3.75 17.5707 3.75 17.572 3.75 17.5733C3.75 17.5747 3.75 17.576 3.75 17.5773C3.75 17.5786 3.75 17.5799 3.75 17.5812C3.75 17.5826 3.75 17.5839 3.75 17.5852C3.75 17.5865 3.75 17.5878 3.75 17.5891C3.75 17.5905 3.75 17.5918 3.75 17.5931C3.75 17.5944 3.75 17.5957 3.75 17.597C3.75 17.5984 3.75 17.5997 3.75 17.601C3.75 17.6023 3.75 17.6036 3.75 17.605C3.75 17.6063 3.75 17.6076 3.75 17.6089C3.75 17.6102 3.75 17.6116 3.75 17.6129C3.75 17.6142 3.75 17.6155 3.75 17.6168C3.75 17.6182 3.75 17.6195 3.75 17.6208C3.75 17.6221 3.75 17.6234 3.75 17.6248C3.75 17.6261 3.75 17.6274 3.75 17.6287C3.75 17.63 3.75 17.6314 3.75 17.6327C3.75 17.634 3.75 17.6353 3.75 17.6366C3.75 17.638 3.75 17.6393 3.75 17.6406C3.75 17.6419 3.75 17.6433 3.75 17.6446C3.75 17.6459 3.75 17.6472 3.75 17.6485C3.75 17.6499 3.75 17.6512 3.75 17.6525C3.75 17.6538 3.75 17.6552 3.75 17.6565C3.75 17.6578 3.75 17.6591 3.75 17.6605C3.75 17.6618 3.75 17.6631 3.75 17.6644C3.75 17.6658 3.75 17.6671 3.75 17.6684C3.75 17.6697 3.75 17.6711 3.75 17.6724C3.75 17.6737 3.75 17.675 3.75 17.6764C3.75 17.6777 3.75 17.679 3.75 17.6803C3.75 17.6817 3.75 17.683 3.75 17.6843C3.75 17.6856 3.75 17.687 3.75 17.6883C3.75 17.6896 3.75 17.6909 3.75 17.6923C3.75 17.6936 3.75 17.6949 3.75 17.6962C3.75 17.6976 3.75 17.6989 3.75 17.7002C3.75 17.7016 3.75 17.7029 3.75 17.7042C3.75 17.7055 3.75 17.7069 3.75 17.7082C3.75 17.7095 3.75 17.7109 3.75 17.7122C3.75 17.7135 3.75 17.7148 3.75 17.7162C3.75 17.7175 3.75 17.7188 3.75 17.7202C3.75 17.7215 3.75 17.7228 3.75 17.7241C3.75 17.7255 3.75 17.7268 3.75 17.7281C3.75 17.7295 3.75 17.7308 3.75 17.7321C3.75 17.7335 3.75 17.7348 3.75 17.7361C3.75 17.7374 3.75 17.7388 3.75 17.7401C3.75 17.7414 3.75 17.7428 3.75 17.7441C3.75 17.7454 3.75 17.7468 3.75 17.7481C3.75 17.7494 3.75 17.7508 3.75 17.7521C3.75 17.7534 3.75 17.7548 3.75 17.7561C3.75 17.7574 3.75 17.7588 3.75 17.7601C3.75 17.7614 3.75 17.7627 3.75 17.7641C3.75 17.7654 3.75 17.7667 3.75 17.7681C3.75 17.7694 3.75 17.7707 3.75 17.7721C3.75 17.7734 3.75 17.7747 3.75 17.7761C3.75 17.7774 3.75 17.7788 3.75 17.7801C3.75 17.7814 3.75 17.7828 3.75 17.7841C3.75 17.7854 3.75 17.7868 3.75 17.7881C3.75 17.7894 3.75 17.7908 3.75 17.7921C3.75 17.7934 3.75 17.7948 3.75 17.7961C3.75 17.7974 3.75 17.7988 3.75 17.8001C3.75 17.8014 3.75 17.8028 3.75 17.8041C3.75 17.8055 3.75 17.8068 3.75 17.8081C3.75 17.8095 3.75 17.8108 3.75 17.8121C3.75 17.8135 3.75 17.8148 3.75 17.8162C3.75 17.8175 3.75 17.8188 3.75 17.8202C3.75 17.8215 3.75 17.8228 3.75 17.8242C3.75 17.8255 3.75 17.8269 3.75 17.8282C3.75 17.8295 3.75 17.8309 3.75 17.8322C3.75 17.8335 3.75 17.8349 3.75 17.8362C3.75 17.8376 3.75 17.8389 3.75 17.8402C3.75 17.8416 3.75 17.8429 3.75 17.8443C3.75 17.8456 3.75 17.8469 3.75 17.8483C3.75 17.8496 3.75 17.851 3.75 17.8523C3.75 17.8536 3.75 17.855 3.75 17.8563C3.75 17.8577 3.75 17.859 3.75 17.8603C3.75 17.8617 3.75 17.863 3.75 17.8644C3.75 17.8657 3.75 17.8671 3.75 17.8684C3.75 17.8697 3.75 17.8711 3.75 17.8724C3.75 17.8738 3.75 17.8751 3.75 17.8764C3.75 17.8778 3.75 17.8791 3.75 17.8805C3.75 17.8818 3.75 17.8832 3.75 17.8845C3.75 17.8858 3.75 17.8872 3.75 17.8885C3.75 17.8899 3.75 17.8912 3.75 17.8926C3.75 17.8939 3.75 17.8953 3.75 17.8966C3.75 17.8979 3.75 17.8993 3.75 17.9006C3.75 17.902 3.75 17.9033 3.75 17.9047C3.75 17.906 3.75 17.9074 3.75 17.9087C3.75 17.91 3.75 17.9114 3.75 17.9127C3.75 17.9141 3.75 17.9154 3.75 17.9168C3.75 17.9181 3.75 17.9195 3.75 17.9208C3.75 17.9222 3.75 17.9235 3.75 17.9248C3.75 17.9262 3.75 17.9275 3.75 17.9289C3.75 17.9302 3.75 17.9316 3.75 17.9329C3.75 17.9343 3.75 17.9356 3.75 17.937C3.75 17.9383 3.75 17.9397 3.75 17.941C3.75 17.9424 3.75 17.9437 3.75 17.9451C3.75 17.9464 3.75 17.9477 3.75 17.9491C3.75 17.9504 3.75 17.9518 3.75 17.9531C3.75 17.9545 3.75 17.9558 3.75 17.9572C3.75 17.9585 3.75 17.9599 3.75 17.9612C3.75 17.9626 3.75 17.9639 3.75 17.9653C3.75 17.9666 3.75 17.968 3.75 17.9693C3.75 17.9707 3.75 17.972 3.75 17.9734C3.75 17.9747 3.75 17.9761 3.75 17.9774C3.75 17.9788 3.75 17.9801 3.75 17.9815C3.75 17.9828 3.75 17.9842 3.75 17.9855C3.75 17.9869 3.75 17.9882 3.75 17.9896C3.75 17.9909 3.75 17.9923 3.75 17.9936C3.75 17.995 3.75 17.9963 3.75 17.9977C3.75 17.9991 3.75 18.0004 3.75 18.0018C3.75 18.0031 3.75 18.0045 3.75 18.0058C3.75 18.0072 3.75 18.0085 3.75 18.0099C3.75 18.0112 3.75 18.0126 3.75 18.0139C3.75 18.0153 3.75 18.0166 3.75 18.018C3.75 18.0193 3.75 18.0207 3.75 18.0221C3.75 18.0234 3.75 18.0248 3.75 18.0261C3.75 18.0275 3.75 18.0288 3.75 18.0302C3.75 18.0315 3.75 18.0329 3.75 18.0342C3.75 18.0356 3.75 18.037 3.75 18.0383C3.75 18.0397 3.75 18.041 3.75 18.0424C3.75 18.0437 3.75 18.0451 3.75 18.0464C3.75 18.0478 3.75 18.0492 3.75 18.0505C3.75 18.0519 3.75 18.0532 3.75 18.0546C3.75 18.0559 3.75 18.0573 3.75 18.0586C3.75 18.06 3.75 18.0614 3.75 18.0627C3.75 18.0641 3.75 18.0654 3.75 18.0668C3.75 18.0681 3.75 18.0695 3.75 18.0709C3.75 18.0722 3.75 18.0736 3.75 18.0749C3.75 18.0763 3.75 18.0777 3.75 18.079C3.75 18.0804 3.75 18.0817 3.75 18.0831C3.75 18.0844 3.75 18.0858 3.75 18.0872C3.75 18.0885 3.75 18.0899 3.75 18.0912C3.75 18.0926 3.75 18.094 3.75 18.0953C3.75 18.0967 3.75 18.098 3.75 18.0994C3.75 18.1008 3.75 18.1021 3.75 18.1035C3.75 18.1048 3.75 18.1062 3.75 18.1076C3.75 18.1089 3.75 18.1103 3.75 18.1116C3.75 18.113 3.75 18.1144 3.75 18.1157C3.75 18.1171 3.75 18.1184 3.75 18.1198C3.75 18.1212 3.75 18.1225 3.75 18.1239C3.75 18.1253 3.75 18.1266 3.75 18.128C3.75 18.1293 3.75 18.1307 3.75 18.1321C3.75 18.1334 3.75 18.1348 3.75 18.1361C3.75 18.1375 3.75 18.1389 3.75 18.1402C3.75 18.1416 3.75 18.143 3.75 18.1443C3.75 18.1457 3.75 18.1471 3.75 18.1484C3.75 18.1498 3.75 18.1511 3.75 18.1525C3.75 18.1539 3.75 18.1552 3.75 18.1566C3.75 18.158 3.75 18.1593 3.75 18.1607C3.75 18.1621 3.75 18.1634 3.75 18.1648C3.75 18.1661 3.75 18.1675 3.75 18.1689C3.75 18.1702 3.75 18.1716 3.75 18.173C3.75 18.1743 3.75 18.1757 3.75 18.1771C3.75 18.1784 3.75 18.1798 3.75 18.1812C3.75 18.1825 3.75 18.1839 3.75 18.1853C3.75 18.1866 3.75 18.188 3.75 18.1894C3.75 18.1907 3.75 18.1921 3.75 18.1935C3.75 18.1948 3.75 18.1962 3.75 18.1976C3.75 18.1989 3.75 18.2003 3.75 18.2017C3.75 18.203 3.75 18.2044 3.75 18.2058C3.75 18.2071 3.75 18.2085 3.75 18.2099C3.75 18.2112 3.75 18.2126 3.75 18.214C3.75 18.2153 3.75 18.2167 3.75 18.2181C3.75 18.2194 3.75 18.2208 3.75 18.2222C3.75 18.2236 3.75 18.2249 3.75 18.2263C3.75 18.2277 3.75 18.229 3.75 18.2304C3.75 18.2318 3.75 18.2331 3.75 18.2345C3.75 18.2359 3.75 18.2372 3.75 18.2386C3.75 18.24 3.75 18.2414 3.75 18.2427C3.75 18.2441 3.75 18.2455 3.75 18.2468C3.75 18.2482 3.75 18.2496 3.75 18.2509C3.75 18.2523 3.75 18.2537 3.75 18.2551C3.75 18.2564 3.75 18.2578 3.75 18.2592C3.75 18.2605 3.75 18.2619 3.75 18.2633C3.75 18.2647 3.75 18.266 3.75 18.2674C3.75 18.2688 3.75 18.2702 3.75 18.2715C3.75 18.2729 3.75 18.2743 3.75 18.2756C3.75 18.277 3.75 18.2784 3.75 18.2798C3.75 18.2811 3.75 18.2825 3.75 18.2839C3.75 18.2852 3.75 18.2866 3.75 18.288C3.75 18.2894 3.75 18.2907 3.75 18.2921C3.75 18.2935 3.75 18.2949 3.75 18.2962C3.75 18.2976 3.75 18.299 3.75 18.3004C3.75 18.3017 3.75 18.3031 3.75 18.3045C3.75 18.3059 3.75 18.3072 3.75 18.3086C3.75 18.31 3.75 18.3114 3.75 18.3127C3.75 18.3141 3.75 18.3155 3.75 18.3169C3.75 18.3182 3.75 18.3196 3.75 18.321C3.75 18.3224 3.75 18.3237 3.75 18.3251C3.75 18.3265 3.75 18.3279 3.75 18.3292C3.75 18.3306 3.75 18.332 3.75 18.3334C3.75 18.3347 3.75 18.3361 3.75 18.3375C3.75 18.3389 3.75 18.3403 3.75 18.3416C3.75 18.343 3.75 18.3444 3.75 18.3458C3.75 18.3471 3.75 18.3485 3.75 18.3499C3.75 18.3513 3.75 18.3526 3.75 18.354C3.75 18.3554 3.75 18.3568 3.75 18.3582C3.75 18.3595 3.75 18.3609 3.75 18.3623C3.75 18.3637 3.75 18.3651 3.75 18.3664C3.75 18.3678 3.75 18.3692 3.75 18.3706C3.75 18.3719 3.75 18.3733 3.75 18.3747C3.75 18.3761 3.75 18.3775 3.75 18.3788C3.75 18.3802 3.75 18.3816 3.75 18.383C3.75 18.3844 3.75 18.3857 3.75 18.3871C3.75 18.3885 3.75 18.3899 3.75 18.3913C3.75 18.3926 3.75 18.394 3.75 18.3954C3.75 18.3968 3.75 18.3982 3.75 18.3995C3.75 18.4009 3.75 18.4023 3.75 18.4037C3.75 18.4051 3.75 18.4065 3.75 18.4078C3.75 18.4092 3.75 18.4106 3.75 18.412C3.75 18.4134 3.75 18.4147 3.75 18.4161C3.75 18.4175 3.75 18.4189 3.75 18.4203C3.75 18.4217 3.75 18.423 3.75 18.4244C3.75 18.4258 3.75 18.4272 3.75 18.4286C3.75 18.4299 3.75 18.4313 3.75 18.4327C3.75 18.4341 3.75 18.4355 3.75 18.4369C3.75 18.4382 3.75 18.4396 3.75 18.441C3.75 18.4424 3.75 18.4438 3.75 18.4452C3.75 18.4465 3.75 18.4479 3.75 18.4493C3.75 18.4507 3.75 18.4521 3.75 18.4535C3.75 18.4549 3.75 18.4562 3.75 18.4576C3.75 18.459 3.75 18.4604 3.75 18.4618C3.75 18.4632 3.75 18.4645 3.75 18.4659C3.75 18.4673 3.75 18.4687 3.75 18.4701C3.75 18.4715 3.75 18.4729 3.75 18.4742C3.75 18.4756 3.75 18.477 3.75 18.4784C3.75 18.4798 3.75 18.4812 3.75 18.4826C3.75 18.4839 3.75 18.4853 3.75 18.4867C3.75 18.4881 3.75 18.4895 3.75 18.4909H5.25ZM7.5 14.2441L11.5 14.2441L11.5 12.7441L7.5 12.7441L7.5 14.2441ZM13.75 16.4936C13.75 16.4948 13.75 16.496 13.75 16.4972C13.75 16.4984 13.75 16.4996 13.75 16.5008C13.75 16.502 13.75 16.5032 13.75 16.5044C13.75 16.5056 13.75 16.5068 13.75 16.508C13.75 16.5092 13.75 16.5104 13.75 16.5116C13.75 16.5128 13.75 16.514 13.75 16.5152C13.75 16.5164 13.75 16.5176 13.75 16.5188C13.75 16.5199 13.75 16.5211 13.75 16.5223C13.75 16.5235 13.75 16.5247 13.75 16.5259C13.75 16.5271 13.75 16.5283 13.75 16.5295C13.75 16.5307 13.75 16.5319 13.75 16.5331C13.75 16.5343 13.75 16.5355 13.75 16.5367C13.75 16.5379 13.75 16.5391 13.75 16.5403C13.75 16.5415 13.75 16.5427 13.75 16.5439C13.75 16.5451 13.75 16.5463 13.75 16.5476C13.75 16.5488 13.75 16.55 13.75 16.5512C13.75 16.5524 13.75 16.5536 13.75 16.5548C13.75 16.556 13.75 16.5572 13.75 16.5584C13.75 16.5596 13.75 16.5608 13.75 16.562C13.75 16.5632 13.75 16.5644 13.75 16.5656C13.75 16.5668 13.75 16.568 13.75 16.5692C13.75 16.5704 13.75 16.5716 13.75 16.5728C13.75 16.574 13.75 16.5752 13.75 16.5764C13.75 16.5777 13.75 16.5789 13.75 16.5801C13.75 16.5813 13.75 16.5825 13.75 16.5837C13.75 16.5849 13.75 16.5861 13.75 16.5873C13.75 16.5885 13.75 16.5897 13.75 16.5909C13.75 16.5921 13.75 16.5933 13.75 16.5946C13.75 16.5958 13.75 16.597 13.75 16.5982C13.75 16.5994 13.75 16.6006 13.75 16.6018C13.75 16.603 13.75 16.6042 13.75 16.6054C13.75 16.6066 13.75 16.6079 13.75 16.6091C13.75 16.6103 13.75 16.6115 13.75 16.6127C13.75 16.6139 13.75 16.6151 13.75 16.6163C13.75 16.6175 13.75 16.6187 13.75 16.62C13.75 16.6212 13.75 16.6224 13.75 16.6236C13.75 16.6248 13.75 16.626 13.75 16.6272C13.75 16.6284 13.75 16.6297 13.75 16.6309C13.75 16.6321 13.75 16.6333 13.75 16.6345C13.75 16.6357 13.75 16.6369 13.75 16.6381C13.75 16.6394 13.75 16.6406 13.75 16.6418C13.75 16.643 13.75 16.6442 13.75 16.6454C13.75 16.6466 13.75 16.6479 13.75 16.6491C13.75 16.6503 13.75 16.6515 13.75 16.6527C13.75 16.6539 13.75 16.6552 13.75 16.6564C13.75 16.6576 13.75 16.6588 13.75 16.66C13.75 16.6612 13.75 16.6625 13.75 16.6637C13.75 16.6649 13.75 16.6661 13.75 16.6673C13.75 16.6685 13.75 16.6698 13.75 16.671C13.75 16.6722 13.75 16.6734 13.75 16.6746C13.75 16.6759 13.75 16.6771 13.75 16.6783C13.75 16.6795 13.75 16.6807 13.75 16.6819C13.75 16.6832 13.75 16.6844 13.75 16.6856C13.75 16.6868 13.75 16.688 13.75 16.6893C13.75 16.6905 13.75 16.6917 13.75 16.6929C13.75 16.6942 13.75 16.6954 13.75 16.6966C13.75 16.6978 13.75 16.699 13.75 16.7003C13.75 16.7015 13.75 16.7027 13.75 16.7039C13.75 16.7051 13.75 16.7064 13.75 16.7076C13.75 16.7088 13.75 16.71 13.75 16.7113C13.75 16.7125 13.75 16.7137 13.75 16.7149C13.75 16.7162 13.75 16.7174 13.75 16.7186C13.75 16.7198 13.75 16.7211 13.75 16.7223C13.75 16.7235 13.75 16.7247 13.75 16.7259C13.75 16.7272 13.75 16.7284 13.75 16.7296C13.75 16.7309 13.75 16.7321 13.75 16.7333C13.75 16.7345 13.75 16.7358 13.75 16.737C13.75 16.7382 13.75 16.7394 13.75 16.7407C13.75 16.7419 13.75 16.7431 13.75 16.7443C13.75 16.7456 13.75 16.7468 13.75 16.748C13.75 16.7493 13.75 16.7505 13.75 16.7517C13.75 16.7529 13.75 16.7542 13.75 16.7554C13.75 16.7566 13.75 16.7579 13.75 16.7591C13.75 16.7603 13.75 16.7615 13.75 16.7628C13.75 16.764 13.75 16.7652 13.75 16.7665C13.75 16.7677 13.75 16.7689 13.75 16.7701C13.75 16.7714 13.75 16.7726 13.75 16.7738C13.75 16.7751 13.75 16.7763 13.75 16.7775C13.75 16.7788 13.75 16.78 13.75 16.7812C13.75 16.7825 13.75 16.7837 13.75 16.7849C13.75 16.7862 13.75 16.7874 13.75 16.7886C13.75 16.7899 13.75 16.7911 13.75 16.7923C13.75 16.7936 13.75 16.7948 13.75 16.796C13.75 16.7973 13.75 16.7985 13.75 16.7997C13.75 16.801 13.75 16.8022 13.75 16.8034C13.75 16.8047 13.75 16.8059 13.75 16.8071C13.75 16.8084 13.75 16.8096 13.75 16.8108C13.75 16.8121 13.75 16.8133 13.75 16.8145C13.75 16.8158 13.75 16.817 13.75 16.8183C13.75 16.8195 13.75 16.8207 13.75 16.822C13.75 16.8232 13.75 16.8244 13.75 16.8257C13.75 16.8269 13.75 16.8281 13.75 16.8294C13.75 16.8306 13.75 16.8319 13.75 16.8331C13.75 16.8343 13.75 16.8356 13.75 16.8368C13.75 16.8381 13.75 16.8393 13.75 16.8405C13.75 16.8418 13.75 16.843 13.75 16.8442C13.75 16.8455 13.75 16.8467 13.75 16.848C13.75 16.8492 13.75 16.8504 13.75 16.8517C13.75 16.8529 13.75 16.8542 13.75 16.8554C13.75 16.8566 13.75 16.8579 13.75 16.8591C13.75 16.8604 13.75 16.8616 13.75 16.8629C13.75 16.8641 13.75 16.8653 13.75 16.8666C13.75 16.8678 13.75 16.8691 13.75 16.8703C13.75 16.8716 13.75 16.8728 13.75 16.874C13.75 16.8753 13.75 16.8765 13.75 16.8778C13.75 16.879 13.75 16.8803 13.75 16.8815C13.75 16.8827 13.75 16.884 13.75 16.8852C13.75 16.8865 13.75 16.8877 13.75 16.889C13.75 16.8902 13.75 16.8915 13.75 16.8927C13.75 16.8939 13.75 16.8952 13.75 16.8964C13.75 16.8977 13.75 16.8989 13.75 16.9002C13.75 16.9014 13.75 16.9027 13.75 16.9039C13.75 16.9052 13.75 16.9064 13.75 16.9077C13.75 16.9089 13.75 16.9101 13.75 16.9114C13.75 16.9126 13.75 16.9139 13.75 16.9151C13.75 16.9164 13.75 16.9176 13.75 16.9189C13.75 16.9201 13.75 16.9214 13.75 16.9226C13.75 16.9239 13.75 16.9251 13.75 16.9264C13.75 16.9276 13.75 16.9289 13.75 16.9301C13.75 16.9314 13.75 16.9326 13.75 16.9339C13.75 16.9351 13.75 16.9364 13.75 16.9376C13.75 16.9389 13.75 16.9401 13.75 16.9414C13.75 16.9426 13.75 16.9439 13.75 16.9451C13.75 16.9464 13.75 16.9476 13.75 16.9489C13.75 16.9501 13.75 16.9514 13.75 16.9526C13.75 16.9539 13.75 16.9551 13.75 16.9564C13.75 16.9576 13.75 16.9589 13.75 16.9602C13.75 16.9614 13.75 16.9627 13.75 16.9639C13.75 16.9652 13.75 16.9664 13.75 16.9677C13.75 16.9689 13.75 16.9702 13.75 16.9714C13.75 16.9727 13.75 16.9739 13.75 16.9752C13.75 16.9765 13.75 16.9777 13.75 16.979C13.75 16.9802 13.75 16.9815 13.75 16.9827C13.75 16.984 13.75 16.9852 13.75 16.9865C13.75 16.9878 13.75 16.989 13.75 16.9903C13.75 16.9915 13.75 16.9928 13.75 16.994C13.75 16.9953 13.75 16.9965 13.75 16.9978C13.75 16.9991 13.75 17.0003 13.75 17.0016C13.75 17.0028 13.75 17.0041 13.75 17.0054C13.75 17.0066 13.75 17.0079 13.75 17.0091C13.75 17.0104 13.75 17.0116 13.75 17.0129C13.75 17.0142 13.75 17.0154 13.75 17.0167C13.75 17.0179 13.75 17.0192 13.75 17.0205C13.75 17.0217 13.75 17.023 13.75 17.0242C13.75 17.0255 13.75 17.0268 13.75 17.028C13.75 17.0293 13.75 17.0305 13.75 17.0318C13.75 17.0331 13.75 17.0343 13.75 17.0356C13.75 17.0369 13.75 17.0381 13.75 17.0394C13.75 17.0406 13.75 17.0419 13.75 17.0432C13.75 17.0444 13.75 17.0457 13.75 17.047C13.75 17.0482 13.75 17.0495 13.75 17.0507C13.75 17.052 13.75 17.0533 13.75 17.0545C13.75 17.0558 13.75 17.0571 13.75 17.0583C13.75 17.0596 13.75 17.0609 13.75 17.0621C13.75 17.0634 13.75 17.0646 13.75 17.0659C13.75 17.0672 13.75 17.0684 13.75 17.0697C13.75 17.071 13.75 17.0722 13.75 17.0735C13.75 17.0748 13.75 17.076 13.75 17.0773C13.75 17.0786 13.75 17.0798 13.75 17.0811C13.75 17.0824 13.75 17.0836 13.75 17.0849C13.75 17.0862 13.75 17.0874 13.75 17.0887C13.75 17.09 13.75 17.0912 13.75 17.0925C13.75 17.0938 13.75 17.095 13.75 17.0963C13.75 17.0976 13.75 17.0988 13.75 17.1001C13.75 17.1014 13.75 17.1027 13.75 17.1039C13.75 17.1052 13.75 17.1065 13.75 17.1077C13.75 17.109 13.75 17.1103 13.75 17.1115C13.75 17.1128 13.75 17.1141 13.75 17.1153C13.75 17.1166 13.75 17.1179 13.75 17.1192C13.75 17.1204 13.75 17.1217 13.75 17.123C13.75 17.1242 13.75 17.1255 13.75 17.1268C13.75 17.1281 13.75 17.1293 13.75 17.1306C13.75 17.1319 13.75 17.1331 13.75 17.1344C13.75 17.1357 13.75 17.137 13.75 17.1382C13.75 17.1395 13.75 17.1408 13.75 17.1421C13.75 17.1433 13.75 17.1446 13.75 17.1459C13.75 17.1471 13.75 17.1484 13.75 17.1497C13.75 17.151 13.75 17.1522 13.75 17.1535C13.75 17.1548 13.75 17.1561 13.75 17.1573C13.75 17.1586 13.75 17.1599 13.75 17.1612C13.75 17.1624 13.75 17.1637 13.75 17.165C13.75 17.1663 13.75 17.1675 13.75 17.1688C13.75 17.1701 13.75 17.1714 13.75 17.1727C13.75 17.1739 13.75 17.1752 13.75 17.1765C13.75 17.1778 13.75 17.179 13.75 17.1803C13.75 17.1816 13.75 17.1829 13.75 17.1841C13.75 17.1854 13.75 17.1867 13.75 17.188C13.75 17.1893 13.75 17.1905 13.75 17.1918C13.75 17.1931 13.75 17.1944 13.75 17.1957C13.75 17.1969 13.75 17.1982 13.75 17.1995C13.75 17.2008 13.75 17.202 13.75 17.2033C13.75 17.2046 13.75 17.2059 13.75 17.2072C13.75 17.2084 13.75 17.2097 13.75 17.211C13.75 17.2123 13.75 17.2136 13.75 17.2149C13.75 17.2161 13.75 17.2174 13.75 17.2187C13.75 17.22 13.75 17.2213 13.75 17.2225C13.75 17.2238 13.75 17.2251 13.75 17.2264C13.75 17.2277 13.75 17.2289 13.75 17.2302C13.75 17.2315 13.75 17.2328 13.75 17.2341C13.75 17.2354 13.75 17.2366 13.75 17.2379C13.75 17.2392 13.75 17.2405 13.75 17.2418C13.75 17.2431 13.75 17.2443 13.75 17.2456C13.75 17.2469 13.75 17.2482 13.75 17.2495C13.75 17.2508 13.75 17.2521 13.75 17.2533C13.75 17.2546 13.75 17.2559 13.75 17.2572C13.75 17.2585 13.75 17.2598 13.75 17.2611C13.75 17.2623 13.75 17.2636 13.75 17.2649C13.75 17.2662 13.75 17.2675 13.75 17.2688C13.75 17.2701 13.75 17.2713 13.75 17.2726C13.75 17.2739 13.75 17.2752 13.75 17.2765C13.75 17.2778 13.75 17.2791 13.75 17.2804C13.75 17.2816 13.75 17.2829 13.75 17.2842C13.75 17.2855 13.75 17.2868 13.75 17.2881C13.75 17.2894 13.75 17.2907 13.75 17.2919C13.75 17.2932 13.75 17.2945 13.75 17.2958C13.75 17.2971 13.75 17.2984 13.75 17.2997C13.75 17.301 13.75 17.3023 13.75 17.3036C13.75 17.3048 13.75 17.3061 13.75 17.3074C13.75 17.3087 13.75 17.31 13.75 17.3113C13.75 17.3126 13.75 17.3139 13.75 17.3152C13.75 17.3165 13.75 17.3178 13.75 17.319C13.75 17.3203 13.75 17.3216 13.75 17.3229C13.75 17.3242 13.75 17.3255 13.75 17.3268C13.75 17.3281 13.75 17.3294 13.75 17.3307C13.75 17.332 13.75 17.3333 13.75 17.3346C13.75 17.3358 13.75 17.3371 13.75 17.3384C13.75 17.3397 13.75 17.341 13.75 17.3423C13.75 17.3436 13.75 17.3449 13.75 17.3462C13.75 17.3475 13.75 17.3488 13.75 17.3501C13.75 17.3514 13.75 17.3527 13.75 17.354C13.75 17.3553 13.75 17.3566 13.75 17.3579C13.75 17.3591 13.75 17.3604 13.75 17.3617C13.75 17.363 13.75 17.3643 13.75 17.3656C13.75 17.3669 13.75 17.3682 13.75 17.3695C13.75 17.3708 13.75 17.3721 13.75 17.3734C13.75 17.3747 13.75 17.376 13.75 17.3773C13.75 17.3786 13.75 17.3799 13.75 17.3812C13.75 17.3825 13.75 17.3838 13.75 17.3851C13.75 17.3864 13.75 17.3877 13.75 17.389C13.75 17.3903 13.75 17.3916 13.75 17.3929C13.75 17.3942 13.75 17.3955 13.75 17.3968C13.75 17.3981 13.75 17.3994 13.75 17.4007C13.75 17.402 13.75 17.4033 13.75 17.4046C13.75 17.4059 13.75 17.4072 13.75 17.4085C13.75 17.4098 13.75 17.4111 13.75 17.4124C13.75 17.4137 13.75 17.415 13.75 17.4163C13.75 17.4176 13.75 17.4189 13.75 17.4202C13.75 17.4215 13.75 17.4228 13.75 17.4241C13.75 17.4254 13.75 17.4267 13.75 17.428C13.75 17.4293 13.75 17.4306 13.75 17.4319C13.75 17.4332 13.75 17.4345 13.75 17.4358C13.75 17.4371 13.75 17.4384 13.75 17.4397C13.75 17.441 13.75 17.4423 13.75 17.4436C13.75 17.4449 13.75 17.4462 13.75 17.4475C13.75 17.4489 13.75 17.4502 13.75 17.4515C13.75 17.4528 13.75 17.4541 13.75 17.4554C13.75 17.4567 13.75 17.458 13.75 17.4593C13.75 17.4606 13.75 17.4619 13.75 17.4632C13.75 17.4645 13.75 17.4658 13.75 17.4671C13.75 17.4684 13.75 17.4697 13.75 17.471C13.75 17.4724 13.75 17.4737 13.75 17.475C13.75 17.4763 13.75 17.4776 13.75 17.4789C13.75 17.4802 13.75 17.4815 13.75 17.4828C13.75 17.4841 13.75 17.4854 13.75 17.4867C13.75 17.488 13.75 17.4893 13.75 17.4907C13.75 17.492 13.75 17.4933 13.75 17.4946C13.75 17.4959 13.75 17.4972 13.75 17.4985C13.75 17.4998 13.75 17.5011 13.75 17.5024C13.75 17.5037 13.75 17.5051 13.75 17.5064C13.75 17.5077 13.75 17.509 13.75 17.5103C13.75 17.5116 13.75 17.5129 13.75 17.5142C13.75 17.5155 13.75 17.5169 13.75 17.5182C13.75 17.5195 13.75 17.5208 13.75 17.5221C13.75 17.5234 13.75 17.5247 13.75 17.526C13.75 17.5273 13.75 17.5287 13.75 17.53C13.75 17.5313 13.75 17.5326 13.75 17.5339C13.75 17.5352 13.75 17.5365 13.75 17.5378C13.75 17.5392 13.75 17.5405 13.75 17.5418C13.75 17.5431 13.75 17.5444 13.75 17.5457C13.75 17.547 13.75 17.5483 13.75 17.5497C13.75 17.551 13.75 17.5523 13.75 17.5536C13.75 17.5549 13.75 17.5562 13.75 17.5575C13.75 17.5589 13.75 17.5602 13.75 17.5615C13.75 17.5628 13.75 17.5641 13.75 17.5654C13.75 17.5668 13.75 17.5681 13.75 17.5694C13.75 17.5707 13.75 17.572 13.75 17.5733C13.75 17.5746 13.75 17.576 13.75 17.5773C13.75 17.5786 13.75 17.5799 13.75 17.5812C13.75 17.5825 13.75 17.5839 13.75 17.5852C13.75 17.5865 13.75 17.5878 13.75 17.5891C13.75 17.5905 13.75 17.5918 13.75 17.5931C13.75 17.5944 13.75 17.5957 13.75 17.597C13.75 17.5984 13.75 17.5997 13.75 17.601C13.75 17.6023 13.75 17.6036 13.75 17.605C13.75 17.6063 13.75 17.6076 13.75 17.6089C13.75 17.6102 13.75 17.6115 13.75 17.6129C13.75 17.6142 13.75 17.6155 13.75 17.6168C13.75 17.6181 13.75 17.6195 13.75 17.6208C13.75 17.6221 13.75 17.6234 13.75 17.6248C13.75 17.6261 13.75 17.6274 13.75 17.6287C13.75 17.63 13.75 17.6314 13.75 17.6327C13.75 17.634 13.75 17.6353 13.75 17.6366C13.75 17.638 13.75 17.6393 13.75 17.6406C13.75 17.6419 13.75 17.6433 13.75 17.6446C13.75 17.6459 13.75 17.6472 13.75 17.6485C13.75 17.6499 13.75 17.6512 13.75 17.6525C13.75 17.6538 13.75 17.6552 13.75 17.6565C13.75 17.6578 13.75 17.6591 13.75 17.6605C13.75 17.6618 13.75 17.6631 13.75 17.6644C13.75 17.6658 13.75 17.6671 13.75 17.6684C13.75 17.6697 13.75 17.6711 13.75 17.6724C13.75 17.6737 13.75 17.675 13.75 17.6764C13.75 17.6777 13.75 17.679 13.75 17.6803C13.75 17.6817 13.75 17.683 13.75 17.6843C13.75 17.6856 13.75 17.687 13.75 17.6883C13.75 17.6896 13.75 17.6909 13.75 17.6923C13.75 17.6936 13.75 17.6949 13.75 17.6962C13.75 17.6976 13.75 17.6989 13.75 17.7002C13.75 17.7016 13.75 17.7029 13.75 17.7042C13.75 17.7055 13.75 17.7069 13.75 17.7082C13.75 17.7095 13.75 17.7108 13.75 17.7122C13.75 17.7135 13.75 17.7148 13.75 17.7162C13.75 17.7175 13.75 17.7188 13.75 17.7202C13.75 17.7215 13.75 17.7228 13.75 17.7241C13.75 17.7255 13.75 17.7268 13.75 17.7281C13.75 17.7295 13.75 17.7308 13.75 17.7321C13.75 17.7334 13.75 17.7348 13.75 17.7361C13.75 17.7374 13.75 17.7388 13.75 17.7401C13.75 17.7414 13.75 17.7428 13.75 17.7441C13.75 17.7454 13.75 17.7468 13.75 17.7481C13.75 17.7494 13.75 17.7508 13.75 17.7521C13.75 17.7534 13.75 17.7547 13.75 17.7561C13.75 17.7574 13.75 17.7587 13.75 17.7601C13.75 17.7614 13.75 17.7627 13.75 17.7641C13.75 17.7654 13.75 17.7667 13.75 17.7681C13.75 17.7694 13.75 17.7707 13.75 17.7721C13.75 17.7734 13.75 17.7747 13.75 17.7761C13.75 17.7774 13.75 17.7787 13.75 17.7801C13.75 17.7814 13.75 17.7828 13.75 17.7841C13.75 17.7854 13.75 17.7868 13.75 17.7881C13.75 17.7894 13.75 17.7908 13.75 17.7921C13.75 17.7934 13.75 17.7948 13.75 17.7961C13.75 17.7974 13.75 17.7988 13.75 17.8001C13.75 17.8014 13.75 17.8028 13.75 17.8041C13.75 17.8055 13.75 17.8068 13.75 17.8081C13.75 17.8095 13.75 17.8108 13.75 17.8121C13.75 17.8135 13.75 17.8148 13.75 17.8162C13.75 17.8175 13.75 17.8188 13.75 17.8202C13.75 17.8215 13.75 17.8228 13.75 17.8242C13.75 17.8255 13.75 17.8269 13.75 17.8282C13.75 17.8295 13.75 17.8309 13.75 17.8322C13.75 17.8335 13.75 17.8349 13.75 17.8362C13.75 17.8376 13.75 17.8389 13.75 17.8402C13.75 17.8416 13.75 17.8429 13.75 17.8443C13.75 17.8456 13.75 17.8469 13.75 17.8483C13.75 17.8496 13.75 17.851 13.75 17.8523C13.75 17.8536 13.75 17.855 13.75 17.8563C13.75 17.8577 13.75 17.859 13.75 17.8603C13.75 17.8617 13.75 17.863 13.75 17.8644C13.75 17.8657 13.75 17.8671 13.75 17.8684C13.75 17.8697 13.75 17.8711 13.75 17.8724C13.75 17.8738 13.75 17.8751 13.75 17.8764C13.75 17.8778 13.75 17.8791 13.75 17.8805C13.75 17.8818 13.75 17.8832 13.75 17.8845C13.75 17.8858 13.75 17.8872 13.75 17.8885C13.75 17.8899 13.75 17.8912 13.75 17.8926C13.75 17.8939 13.75 17.8952 13.75 17.8966C13.75 17.8979 13.75 17.8993 13.75 17.9006C13.75 17.902 13.75 17.9033 13.75 17.9047C13.75 17.906 13.75 17.9073 13.75 17.9087C13.75 17.91 13.75 17.9114 13.75 17.9127C13.75 17.9141 13.75 17.9154 13.75 17.9168C13.75 17.9181 13.75 17.9195 13.75 17.9208C13.75 17.9221 13.75 17.9235 13.75 17.9248C13.75 17.9262 13.75 17.9275 13.75 17.9289C13.75 17.9302 13.75 17.9316 13.75 17.9329C13.75 17.9343 13.75 17.9356 13.75 17.937C13.75 17.9383 13.75 17.9397 13.75 17.941C13.75 17.9424 13.75 17.9437 13.75 17.945C13.75 17.9464 13.75 17.9477 13.75 17.9491C13.75 17.9504 13.75 17.9518 13.75 17.9531C13.75 17.9545 13.75 17.9558 13.75 17.9572C13.75 17.9585 13.75 17.9599 13.75 17.9612C13.75 17.9626 13.75 17.9639 13.75 17.9653C13.75 17.9666 13.75 17.968 13.75 17.9693C13.75 17.9707 13.75 17.972 13.75 17.9734C13.75 17.9747 13.75 17.9761 13.75 17.9774C13.75 17.9788 13.75 17.9801 13.75 17.9815C13.75 17.9828 13.75 17.9842 13.75 17.9855C13.75 17.9869 13.75 17.9882 13.75 17.9896C13.75 17.9909 13.75 17.9923 13.75 17.9936C13.75 17.995 13.75 17.9963 13.75 17.9977C13.75 17.999 13.75 18.0004 13.75 18.0018C13.75 18.0031 13.75 18.0045 13.75 18.0058C13.75 18.0072 13.75 18.0085 13.75 18.0099C13.75 18.0112 13.75 18.0126 13.75 18.0139C13.75 18.0153 13.75 18.0166 13.75 18.018C13.75 18.0193 13.75 18.0207 13.75 18.022C13.75 18.0234 13.75 18.0248 13.75 18.0261C13.75 18.0275 13.75 18.0288 13.75 18.0302C13.75 18.0315 13.75 18.0329 13.75 18.0342C13.75 18.0356 13.75 18.0369 13.75 18.0383C13.75 18.0397 13.75 18.041 13.75 18.0424C13.75 18.0437 13.75 18.0451 13.75 18.0464C13.75 18.0478 13.75 18.0491 13.75 18.0505C13.75 18.0519 13.75 18.0532 13.75 18.0546C13.75 18.0559 13.75 18.0573 13.75 18.0586C13.75 18.06 13.75 18.0614 13.75 18.0627C13.75 18.0641 13.75 18.0654 13.75 18.0668C13.75 18.0681 13.75 18.0695 13.75 18.0709C13.75 18.0722 13.75 18.0736 13.75 18.0749C13.75 18.0763 13.75 18.0776 13.75 18.079C13.75 18.0804 13.75 18.0817 13.75 18.0831C13.75 18.0844 13.75 18.0858 13.75 18.0872C13.75 18.0885 13.75 18.0899 13.75 18.0912C13.75 18.0926 13.75 18.094 13.75 18.0953C13.75 18.0967 13.75 18.098 13.75 18.0994C13.75 18.1008 13.75 18.1021 13.75 18.1035C13.75 18.1048 13.75 18.1062 13.75 18.1076C13.75 18.1089 13.75 18.1103 13.75 18.1116C13.75 18.113 13.75 18.1144 13.75 18.1157C13.75 18.1171 13.75 18.1184 13.75 18.1198C13.75 18.1212 13.75 18.1225 13.75 18.1239C13.75 18.1252 13.75 18.1266 13.75 18.128C13.75 18.1293 13.75 18.1307 13.75 18.1321C13.75 18.1334 13.75 18.1348 13.75 18.1361C13.75 18.1375 13.75 18.1389 13.75 18.1402C13.75 18.1416 13.75 18.143 13.75 18.1443C13.75 18.1457 13.75 18.147 13.75 18.1484C13.75 18.1498 13.75 18.1511 13.75 18.1525C13.75 18.1539 13.75 18.1552 13.75 18.1566C13.75 18.158 13.75 18.1593 13.75 18.1607C13.75 18.162 13.75 18.1634 13.75 18.1648C13.75 18.1661 13.75 18.1675 13.75 18.1689C13.75 18.1702 13.75 18.1716 13.75 18.173C13.75 18.1743 13.75 18.1757 13.75 18.1771C13.75 18.1784 13.75 18.1798 13.75 18.1812C13.75 18.1825 13.75 18.1839 13.75 18.1853C13.75 18.1866 13.75 18.188 13.75 18.1894C13.75 18.1907 13.75 18.1921 13.75 18.1935C13.75 18.1948 13.75 18.1962 13.75 18.1976C13.75 18.1989 13.75 18.2003 13.75 18.2017C13.75 18.203 13.75 18.2044 13.75 18.2058C13.75 18.2071 13.75 18.2085 13.75 18.2099C13.75 18.2112 13.75 18.2126 13.75 18.214C13.75 18.2153 13.75 18.2167 13.75 18.2181C13.75 18.2194 13.75 18.2208 13.75 18.2222C13.75 18.2235 13.75 18.2249 13.75 18.2263C13.75 18.2277 13.75 18.229 13.75 18.2304C13.75 18.2318 13.75 18.2331 13.75 18.2345C13.75 18.2359 13.75 18.2372 13.75 18.2386C13.75 18.24 13.75 18.2414 13.75 18.2427C13.75 18.2441 13.75 18.2455 13.75 18.2468C13.75 18.2482 13.75 18.2496 13.75 18.2509C13.75 18.2523 13.75 18.2537 13.75 18.2551C13.75 18.2564 13.75 18.2578 13.75 18.2592C13.75 18.2605 13.75 18.2619 13.75 18.2633C13.75 18.2647 13.75 18.266 13.75 18.2674C13.75 18.2688 13.75 18.2701 13.75 18.2715C13.75 18.2729 13.75 18.2743 13.75 18.2756C13.75 18.277 13.75 18.2784 13.75 18.2798C13.75 18.2811 13.75 18.2825 13.75 18.2839C13.75 18.2852 13.75 18.2866 13.75 18.288C13.75 18.2894 13.75 18.2907 13.75 18.2921C13.75 18.2935 13.75 18.2949 13.75 18.2962C13.75 18.2976 13.75 18.299 13.75 18.3004C13.75 18.3017 13.75 18.3031 13.75 18.3045C13.75 18.3059 13.75 18.3072 13.75 18.3086C13.75 18.31 13.75 18.3114 13.75 18.3127C13.75 18.3141 13.75 18.3155 13.75 18.3169C13.75 18.3182 13.75 18.3196 13.75 18.321C13.75 18.3224 13.75 18.3237 13.75 18.3251C13.75 18.3265 13.75 18.3279 13.75 18.3292C13.75 18.3306 13.75 18.332 13.75 18.3334C13.75 18.3347 13.75 18.3361 13.75 18.3375C13.75 18.3389 13.75 18.3402 13.75 18.3416C13.75 18.343 13.75 18.3444 13.75 18.3458C13.75 18.3471 13.75 18.3485 13.75 18.3499C13.75 18.3513 13.75 18.3526 13.75 18.354C13.75 18.3554 13.75 18.3568 13.75 18.3582C13.75 18.3595 13.75 18.3609 13.75 18.3623C13.75 18.3637 13.75 18.365 13.75 18.3664C13.75 18.3678 13.75 18.3692 13.75 18.3706C13.75 18.3719 13.75 18.3733 13.75 18.3747C13.75 18.3761 13.75 18.3775 13.75 18.3788C13.75 18.3802 13.75 18.3816 13.75 18.383C13.75 18.3844 13.75 18.3857 13.75 18.3871C13.75 18.3885 13.75 18.3899 13.75 18.3913C13.75 18.3926 13.75 18.394 13.75 18.3954C13.75 18.3968 13.75 18.3982 13.75 18.3995C13.75 18.4009 13.75 18.4023 13.75 18.4037C13.75 18.4051 13.75 18.4064 13.75 18.4078C13.75 18.4092 13.75 18.4106 13.75 18.412C13.75 18.4134 13.75 18.4147 13.75 18.4161C13.75 18.4175 13.75 18.4189 13.75 18.4203C13.75 18.4216 13.75 18.423 13.75 18.4244C13.75 18.4258 13.75 18.4272 13.75 18.4286C13.75 18.4299 13.75 18.4313 13.75 18.4327C13.75 18.4341 13.75 18.4355 13.75 18.4369C13.75 18.4382 13.75 18.4396 13.75 18.441C13.75 18.4424 13.75 18.4438 13.75 18.4452C13.75 18.4465 13.75 18.4479 13.75 18.4493C13.75 18.4507 13.75 18.4521 13.75 18.4535C13.75 18.4548 13.75 18.4562 13.75 18.4576C13.75 18.459 13.75 18.4604 13.75 18.4618C13.75 18.4632 13.75 18.4645 13.75 18.4659C13.75 18.4673 13.75 18.4687 13.75 18.4701C13.75 18.4715 13.75 18.4729 13.75 18.4742C13.75 18.4756 13.75 18.477 13.75 18.4784C13.75 18.4798 13.75 18.4812 13.75 18.4826C13.75 18.4839 13.75 18.4853 13.75 18.4867C13.75 18.4881 13.75 18.4895 13.75 18.4909H15.25C15.25 18.4895 15.25 18.4881 15.25 18.4867C15.25 18.4853 15.25 18.4839 15.25 18.4826C15.25 18.4812 15.25 18.4798 15.25 18.4784C15.25 18.477 15.25 18.4756 15.25 18.4742C15.25 18.4729 15.25 18.4715 15.25 18.4701C15.25 18.4687 15.25 18.4673 15.25 18.4659C15.25 18.4645 15.25 18.4632 15.25 18.4618C15.25 18.4604 15.25 18.459 15.25 18.4576C15.25 18.4562 15.25 18.4548 15.25 18.4535C15.25 18.4521 15.25 18.4507 15.25 18.4493C15.25 18.4479 15.25 18.4465 15.25 18.4452C15.25 18.4438 15.25 18.4424 15.25 18.441C15.25 18.4396 15.25 18.4382 15.25 18.4369C15.25 18.4355 15.25 18.4341 15.25 18.4327C15.25 18.4313 15.25 18.4299 15.25 18.4286C15.25 18.4272 15.25 18.4258 15.25 18.4244C15.25 18.423 15.25 18.4216 15.25 18.4203C15.25 18.4189 15.25 18.4175 15.25 18.4161C15.25 18.4147 15.25 18.4134 15.25 18.412C15.25 18.4106 15.25 18.4092 15.25 18.4078C15.25 18.4064 15.25 18.4051 15.25 18.4037C15.25 18.4023 15.25 18.4009 15.25 18.3995C15.25 18.3982 15.25 18.3968 15.25 18.3954C15.25 18.394 15.25 18.3926 15.25 18.3913C15.25 18.3899 15.25 18.3885 15.25 18.3871C15.25 18.3857 15.25 18.3844 15.25 18.383C15.25 18.3816 15.25 18.3802 15.25 18.3788C15.25 18.3775 15.25 18.3761 15.25 18.3747C15.25 18.3733 15.25 18.3719 15.25 18.3706C15.25 18.3692 15.25 18.3678 15.25 18.3664C15.25 18.365 15.25 18.3637 15.25 18.3623C15.25 18.3609 15.25 18.3595 15.25 18.3582C15.25 18.3568 15.25 18.3554 15.25 18.354C15.25 18.3526 15.25 18.3513 15.25 18.3499C15.25 18.3485 15.25 18.3471 15.25 18.3458C15.25 18.3444 15.25 18.343 15.25 18.3416C15.25 18.3402 15.25 18.3389 15.25 18.3375C15.25 18.3361 15.25 18.3347 15.25 18.3334C15.25 18.332 15.25 18.3306 15.25 18.3292C15.25 18.3279 15.25 18.3265 15.25 18.3251C15.25 18.3237 15.25 18.3224 15.25 18.321C15.25 18.3196 15.25 18.3182 15.25 18.3169C15.25 18.3155 15.25 18.3141 15.25 18.3127C15.25 18.3114 15.25 18.31 15.25 18.3086C15.25 18.3072 15.25 18.3059 15.25 18.3045C15.25 18.3031 15.25 18.3017 15.25 18.3004C15.25 18.299 15.25 18.2976 15.25 18.2962C15.25 18.2949 15.25 18.2935 15.25 18.2921C15.25 18.2907 15.25 18.2894 15.25 18.288C15.25 18.2866 15.25 18.2852 15.25 18.2839C15.25 18.2825 15.25 18.2811 15.25 18.2798C15.25 18.2784 15.25 18.277 15.25 18.2756C15.25 18.2743 15.25 18.2729 15.25 18.2715C15.25 18.2701 15.25 18.2688 15.25 18.2674C15.25 18.266 15.25 18.2647 15.25 18.2633C15.25 18.2619 15.25 18.2605 15.25 18.2592C15.25 18.2578 15.25 18.2564 15.25 18.2551C15.25 18.2537 15.25 18.2523 15.25 18.2509C15.25 18.2496 15.25 18.2482 15.25 18.2468C15.25 18.2455 15.25 18.2441 15.25 18.2427C15.25 18.2414 15.25 18.24 15.25 18.2386C15.25 18.2372 15.25 18.2359 15.25 18.2345C15.25 18.2331 15.25 18.2318 15.25 18.2304C15.25 18.229 15.25 18.2277 15.25 18.2263C15.25 18.2249 15.25 18.2235 15.25 18.2222C15.25 18.2208 15.25 18.2194 15.25 18.2181C15.25 18.2167 15.25 18.2153 15.25 18.214C15.25 18.2126 15.25 18.2112 15.25 18.2099C15.25 18.2085 15.25 18.2071 15.25 18.2058C15.25 18.2044 15.25 18.203 15.25 18.2017C15.25 18.2003 15.25 18.1989 15.25 18.1976C15.25 18.1962 15.25 18.1948 15.25 18.1935C15.25 18.1921 15.25 18.1907 15.25 18.1894C15.25 18.188 15.25 18.1866 15.25 18.1853C15.25 18.1839 15.25 18.1825 15.25 18.1812C15.25 18.1798 15.25 18.1784 15.25 18.1771C15.25 18.1757 15.25 18.1743 15.25 18.173C15.25 18.1716 15.25 18.1702 15.25 18.1689C15.25 18.1675 15.25 18.1661 15.25 18.1648C15.25 18.1634 15.25 18.162 15.25 18.1607C15.25 18.1593 15.25 18.158 15.25 18.1566C15.25 18.1552 15.25 18.1539 15.25 18.1525C15.25 18.1511 15.25 18.1498 15.25 18.1484C15.25 18.147 15.25 18.1457 15.25 18.1443C15.25 18.143 15.25 18.1416 15.25 18.1402C15.25 18.1389 15.25 18.1375 15.25 18.1361C15.25 18.1348 15.25 18.1334 15.25 18.1321C15.25 18.1307 15.25 18.1293 15.25 18.128C15.25 18.1266 15.25 18.1252 15.25 18.1239C15.25 18.1225 15.25 18.1212 15.25 18.1198C15.25 18.1184 15.25 18.1171 15.25 18.1157C15.25 18.1144 15.25 18.113 15.25 18.1116C15.25 18.1103 15.25 18.1089 15.25 18.1076C15.25 18.1062 15.25 18.1048 15.25 18.1035C15.25 18.1021 15.25 18.1008 15.25 18.0994C15.25 18.098 15.25 18.0967 15.25 18.0953C15.25 18.094 15.25 18.0926 15.25 18.0912C15.25 18.0899 15.25 18.0885 15.25 18.0872C15.25 18.0858 15.25 18.0844 15.25 18.0831C15.25 18.0817 15.25 18.0804 15.25 18.079C15.25 18.0776 15.25 18.0763 15.25 18.0749C15.25 18.0736 15.25 18.0722 15.25 18.0709C15.25 18.0695 15.25 18.0681 15.25 18.0668C15.25 18.0654 15.25 18.0641 15.25 18.0627C15.25 18.0614 15.25 18.06 15.25 18.0586C15.25 18.0573 15.25 18.0559 15.25 18.0546C15.25 18.0532 15.25 18.0519 15.25 18.0505C15.25 18.0491 15.25 18.0478 15.25 18.0464C15.25 18.0451 15.25 18.0437 15.25 18.0424C15.25 18.041 15.25 18.0397 15.25 18.0383C15.25 18.0369 15.25 18.0356 15.25 18.0342C15.25 18.0329 15.25 18.0315 15.25 18.0302C15.25 18.0288 15.25 18.0275 15.25 18.0261C15.25 18.0248 15.25 18.0234 15.25 18.022C15.25 18.0207 15.25 18.0193 15.25 18.018C15.25 18.0166 15.25 18.0153 15.25 18.0139C15.25 18.0126 15.25 18.0112 15.25 18.0099C15.25 18.0085 15.25 18.0072 15.25 18.0058C15.25 18.0045 15.25 18.0031 15.25 18.0018C15.25 18.0004 15.25 17.999 15.25 17.9977C15.25 17.9963 15.25 17.995 15.25 17.9936C15.25 17.9923 15.25 17.9909 15.25 17.9896C15.25 17.9882 15.25 17.9869 15.25 17.9855C15.25 17.9842 15.25 17.9828 15.25 17.9815C15.25 17.9801 15.25 17.9788 15.25 17.9774C15.25 17.9761 15.25 17.9747 15.25 17.9734C15.25 17.972 15.25 17.9707 15.25 17.9693C15.25 17.968 15.25 17.9666 15.25 17.9653C15.25 17.9639 15.25 17.9626 15.25 17.9612C15.25 17.9599 15.25 17.9585 15.25 17.9572C15.25 17.9558 15.25 17.9545 15.25 17.9531C15.25 17.9518 15.25 17.9504 15.25 17.9491C15.25 17.9477 15.25 17.9464 15.25 17.945C15.25 17.9437 15.25 17.9424 15.25 17.941C15.25 17.9397 15.25 17.9383 15.25 17.937C15.25 17.9356 15.25 17.9343 15.25 17.9329C15.25 17.9316 15.25 17.9302 15.25 17.9289C15.25 17.9275 15.25 17.9262 15.25 17.9248C15.25 17.9235 15.25 17.9221 15.25 17.9208C15.25 17.9195 15.25 17.9181 15.25 17.9168C15.25 17.9154 15.25 17.9141 15.25 17.9127C15.25 17.9114 15.25 17.91 15.25 17.9087C15.25 17.9073 15.25 17.906 15.25 17.9047C15.25 17.9033 15.25 17.902 15.25 17.9006C15.25 17.8993 15.25 17.8979 15.25 17.8966C15.25 17.8952 15.25 17.8939 15.25 17.8926C15.25 17.8912 15.25 17.8899 15.25 17.8885C15.25 17.8872 15.25 17.8858 15.25 17.8845C15.25 17.8832 15.25 17.8818 15.25 17.8805C15.25 17.8791 15.25 17.8778 15.25 17.8764C15.25 17.8751 15.25 17.8738 15.25 17.8724C15.25 17.8711 15.25 17.8697 15.25 17.8684C15.25 17.8671 15.25 17.8657 15.25 17.8644C15.25 17.863 15.25 17.8617 15.25 17.8603C15.25 17.859 15.25 17.8577 15.25 17.8563C15.25 17.855 15.25 17.8536 15.25 17.8523C15.25 17.851 15.25 17.8496 15.25 17.8483C15.25 17.8469 15.25 17.8456 15.25 17.8443C15.25 17.8429 15.25 17.8416 15.25 17.8402C15.25 17.8389 15.25 17.8376 15.25 17.8362C15.25 17.8349 15.25 17.8335 15.25 17.8322C15.25 17.8309 15.25 17.8295 15.25 17.8282C15.25 17.8269 15.25 17.8255 15.25 17.8242C15.25 17.8228 15.25 17.8215 15.25 17.8202C15.25 17.8188 15.25 17.8175 15.25 17.8162C15.25 17.8148 15.25 17.8135 15.25 17.8121C15.25 17.8108 15.25 17.8095 15.25 17.8081C15.25 17.8068 15.25 17.8055 15.25 17.8041C15.25 17.8028 15.25 17.8014 15.25 17.8001C15.25 17.7988 15.25 17.7974 15.25 17.7961C15.25 17.7948 15.25 17.7934 15.25 17.7921C15.25 17.7908 15.25 17.7894 15.25 17.7881C15.25 17.7868 15.25 17.7854 15.25 17.7841C15.25 17.7828 15.25 17.7814 15.25 17.7801C15.25 17.7787 15.25 17.7774 15.25 17.7761C15.25 17.7747 15.25 17.7734 15.25 17.7721C15.25 17.7707 15.25 17.7694 15.25 17.7681C15.25 17.7667 15.25 17.7654 15.25 17.7641C15.25 17.7627 15.25 17.7614 15.25 17.7601C15.25 17.7587 15.25 17.7574 15.25 17.7561C15.25 17.7547 15.25 17.7534 15.25 17.7521C15.25 17.7508 15.25 17.7494 15.25 17.7481C15.25 17.7468 15.25 17.7454 15.25 17.7441C15.25 17.7428 15.25 17.7414 15.25 17.7401C15.25 17.7388 15.25 17.7374 15.25 17.7361C15.25 17.7348 15.25 17.7334 15.25 17.7321C15.25 17.7308 15.25 17.7295 15.25 17.7281C15.25 17.7268 15.25 17.7255 15.25 17.7241C15.25 17.7228 15.25 17.7215 15.25 17.7202C15.25 17.7188 15.25 17.7175 15.25 17.7162C15.25 17.7148 15.25 17.7135 15.25 17.7122C15.25 17.7108 15.25 17.7095 15.25 17.7082C15.25 17.7069 15.25 17.7055 15.25 17.7042C15.25 17.7029 15.25 17.7016 15.25 17.7002C15.25 17.6989 15.25 17.6976 15.25 17.6962C15.25 17.6949 15.25 17.6936 15.25 17.6923C15.25 17.6909 15.25 17.6896 15.25 17.6883C15.25 17.687 15.25 17.6856 15.25 17.6843C15.25 17.683 15.25 17.6817 15.25 17.6803C15.25 17.679 15.25 17.6777 15.25 17.6764C15.25 17.675 15.25 17.6737 15.25 17.6724C15.25 17.6711 15.25 17.6697 15.25 17.6684C15.25 17.6671 15.25 17.6658 15.25 17.6644C15.25 17.6631 15.25 17.6618 15.25 17.6605C15.25 17.6591 15.25 17.6578 15.25 17.6565C15.25 17.6552 15.25 17.6538 15.25 17.6525C15.25 17.6512 15.25 17.6499 15.25 17.6485C15.25 17.6472 15.25 17.6459 15.25 17.6446C15.25 17.6433 15.25 17.6419 15.25 17.6406C15.25 17.6393 15.25 17.638 15.25 17.6366C15.25 17.6353 15.25 17.634 15.25 17.6327C15.25 17.6314 15.25 17.63 15.25 17.6287C15.25 17.6274 15.25 17.6261 15.25 17.6248C15.25 17.6234 15.25 17.6221 15.25 17.6208C15.25 17.6195 15.25 17.6181 15.25 17.6168C15.25 17.6155 15.25 17.6142 15.25 17.6129C15.25 17.6115 15.25 17.6102 15.25 17.6089C15.25 17.6076 15.25 17.6063 15.25 17.605C15.25 17.6036 15.25 17.6023 15.25 17.601C15.25 17.5997 15.25 17.5984 15.25 17.597C15.25 17.5957 15.25 17.5944 15.25 17.5931C15.25 17.5918 15.25 17.5905 15.25 17.5891C15.25 17.5878 15.25 17.5865 15.25 17.5852C15.25 17.5839 15.25 17.5825 15.25 17.5812C15.25 17.5799 15.25 17.5786 15.25 17.5773C15.25 17.576 15.25 17.5746 15.25 17.5733C15.25 17.572 15.25 17.5707 15.25 17.5694C15.25 17.5681 15.25 17.5668 15.25 17.5654C15.25 17.5641 15.25 17.5628 15.25 17.5615C15.25 17.5602 15.25 17.5589 15.25 17.5575C15.25 17.5562 15.25 17.5549 15.25 17.5536C15.25 17.5523 15.25 17.551 15.25 17.5497C15.25 17.5483 15.25 17.547 15.25 17.5457C15.25 17.5444 15.25 17.5431 15.25 17.5418C15.25 17.5405 15.25 17.5392 15.25 17.5378C15.25 17.5365 15.25 17.5352 15.25 17.5339C15.25 17.5326 15.25 17.5313 15.25 17.53C15.25 17.5287 15.25 17.5273 15.25 17.526C15.25 17.5247 15.25 17.5234 15.25 17.5221C15.25 17.5208 15.25 17.5195 15.25 17.5182C15.25 17.5169 15.25 17.5155 15.25 17.5142C15.25 17.5129 15.25 17.5116 15.25 17.5103C15.25 17.509 15.25 17.5077 15.25 17.5064C15.25 17.5051 15.25 17.5037 15.25 17.5024C15.25 17.5011 15.25 17.4998 15.25 17.4985C15.25 17.4972 15.25 17.4959 15.25 17.4946C15.25 17.4933 15.25 17.492 15.25 17.4907C15.25 17.4893 15.25 17.488 15.25 17.4867C15.25 17.4854 15.25 17.4841 15.25 17.4828C15.25 17.4815 15.25 17.4802 15.25 17.4789C15.25 17.4776 15.25 17.4763 15.25 17.475C15.25 17.4737 15.25 17.4724 15.25 17.471C15.25 17.4697 15.25 17.4684 15.25 17.4671C15.25 17.4658 15.25 17.4645 15.25 17.4632C15.25 17.4619 15.25 17.4606 15.25 17.4593C15.25 17.458 15.25 17.4567 15.25 17.4554C15.25 17.4541 15.25 17.4528 15.25 17.4515C15.25 17.4502 15.25 17.4489 15.25 17.4475C15.25 17.4462 15.25 17.4449 15.25 17.4436C15.25 17.4423 15.25 17.441 15.25 17.4397C15.25 17.4384 15.25 17.4371 15.25 17.4358C15.25 17.4345 15.25 17.4332 15.25 17.4319C15.25 17.4306 15.25 17.4293 15.25 17.428C15.25 17.4267 15.25 17.4254 15.25 17.4241C15.25 17.4228 15.25 17.4215 15.25 17.4202C15.25 17.4189 15.25 17.4176 15.25 17.4163C15.25 17.415 15.25 17.4137 15.25 17.4124C15.25 17.4111 15.25 17.4098 15.25 17.4085C15.25 17.4072 15.25 17.4059 15.25 17.4046C15.25 17.4033 15.25 17.402 15.25 17.4007C15.25 17.3994 15.25 17.3981 15.25 17.3968C15.25 17.3955 15.25 17.3942 15.25 17.3929C15.25 17.3916 15.25 17.3903 15.25 17.389C15.25 17.3877 15.25 17.3864 15.25 17.3851C15.25 17.3838 15.25 17.3825 15.25 17.3812C15.25 17.3799 15.25 17.3786 15.25 17.3773C15.25 17.376 15.25 17.3747 15.25 17.3734C15.25 17.3721 15.25 17.3708 15.25 17.3695C15.25 17.3682 15.25 17.3669 15.25 17.3656C15.25 17.3643 15.25 17.363 15.25 17.3617C15.25 17.3604 15.25 17.3591 15.25 17.3579C15.25 17.3566 15.25 17.3553 15.25 17.354C15.25 17.3527 15.25 17.3514 15.25 17.3501C15.25 17.3488 15.25 17.3475 15.25 17.3462C15.25 17.3449 15.25 17.3436 15.25 17.3423C15.25 17.341 15.25 17.3397 15.25 17.3384C15.25 17.3371 15.25 17.3358 15.25 17.3346C15.25 17.3333 15.25 17.332 15.25 17.3307C15.25 17.3294 15.25 17.3281 15.25 17.3268C15.25 17.3255 15.25 17.3242 15.25 17.3229C15.25 17.3216 15.25 17.3203 15.25 17.319C15.25 17.3178 15.25 17.3165 15.25 17.3152C15.25 17.3139 15.25 17.3126 15.25 17.3113C15.25 17.31 15.25 17.3087 15.25 17.3074C15.25 17.3061 15.25 17.3048 15.25 17.3036C15.25 17.3023 15.25 17.301 15.25 17.2997C15.25 17.2984 15.25 17.2971 15.25 17.2958C15.25 17.2945 15.25 17.2932 15.25 17.2919C15.25 17.2907 15.25 17.2894 15.25 17.2881C15.25 17.2868 15.25 17.2855 15.25 17.2842C15.25 17.2829 15.25 17.2816 15.25 17.2804C15.25 17.2791 15.25 17.2778 15.25 17.2765C15.25 17.2752 15.25 17.2739 15.25 17.2726C15.25 17.2713 15.25 17.2701 15.25 17.2688C15.25 17.2675 15.25 17.2662 15.25 17.2649C15.25 17.2636 15.25 17.2623 15.25 17.2611C15.25 17.2598 15.25 17.2585 15.25 17.2572C15.25 17.2559 15.25 17.2546 15.25 17.2533C15.25 17.2521 15.25 17.2508 15.25 17.2495C15.25 17.2482 15.25 17.2469 15.25 17.2456C15.25 17.2443 15.25 17.2431 15.25 17.2418C15.25 17.2405 15.25 17.2392 15.25 17.2379C15.25 17.2366 15.25 17.2354 15.25 17.2341C15.25 17.2328 15.25 17.2315 15.25 17.2302C15.25 17.2289 15.25 17.2277 15.25 17.2264C15.25 17.2251 15.25 17.2238 15.25 17.2225C15.25 17.2213 15.25 17.22 15.25 17.2187C15.25 17.2174 15.25 17.2161 15.25 17.2149C15.25 17.2136 15.25 17.2123 15.25 17.211C15.25 17.2097 15.25 17.2084 15.25 17.2072C15.25 17.2059 15.25 17.2046 15.25 17.2033C15.25 17.202 15.25 17.2008 15.25 17.1995C15.25 17.1982 15.25 17.1969 15.25 17.1957C15.25 17.1944 15.25 17.1931 15.25 17.1918C15.25 17.1905 15.25 17.1893 15.25 17.188C15.25 17.1867 15.25 17.1854 15.25 17.1841C15.25 17.1829 15.25 17.1816 15.25 17.1803C15.25 17.179 15.25 17.1778 15.25 17.1765C15.25 17.1752 15.25 17.1739 15.25 17.1727C15.25 17.1714 15.25 17.1701 15.25 17.1688C15.25 17.1675 15.25 17.1663 15.25 17.165C15.25 17.1637 15.25 17.1624 15.25 17.1612C15.25 17.1599 15.25 17.1586 15.25 17.1573C15.25 17.1561 15.25 17.1548 15.25 17.1535C15.25 17.1522 15.25 17.151 15.25 17.1497C15.25 17.1484 15.25 17.1471 15.25 17.1459C15.25 17.1446 15.25 17.1433 15.25 17.1421C15.25 17.1408 15.25 17.1395 15.25 17.1382C15.25 17.137 15.25 17.1357 15.25 17.1344C15.25 17.1331 15.25 17.1319 15.25 17.1306C15.25 17.1293 15.25 17.1281 15.25 17.1268C15.25 17.1255 15.25 17.1242 15.25 17.123C15.25 17.1217 15.25 17.1204 15.25 17.1192C15.25 17.1179 15.25 17.1166 15.25 17.1153C15.25 17.1141 15.25 17.1128 15.25 17.1115C15.25 17.1103 15.25 17.109 15.25 17.1077C15.25 17.1065 15.25 17.1052 15.25 17.1039C15.25 17.1027 15.25 17.1014 15.25 17.1001C15.25 17.0988 15.25 17.0976 15.25 17.0963C15.25 17.095 15.25 17.0938 15.25 17.0925C15.25 17.0912 15.25 17.09 15.25 17.0887C15.25 17.0874 15.25 17.0862 15.25 17.0849C15.25 17.0836 15.25 17.0824 15.25 17.0811C15.25 17.0798 15.25 17.0786 15.25 17.0773C15.25 17.076 15.25 17.0748 15.25 17.0735C15.25 17.0722 15.25 17.071 15.25 17.0697C15.25 17.0684 15.25 17.0672 15.25 17.0659C15.25 17.0646 15.25 17.0634 15.25 17.0621C15.25 17.0609 15.25 17.0596 15.25 17.0583C15.25 17.0571 15.25 17.0558 15.25 17.0545C15.25 17.0533 15.25 17.052 15.25 17.0507C15.25 17.0495 15.25 17.0482 15.25 17.047C15.25 17.0457 15.25 17.0444 15.25 17.0432C15.25 17.0419 15.25 17.0406 15.25 17.0394C15.25 17.0381 15.25 17.0369 15.25 17.0356C15.25 17.0343 15.25 17.0331 15.25 17.0318C15.25 17.0305 15.25 17.0293 15.25 17.028C15.25 17.0268 15.25 17.0255 15.25 17.0242C15.25 17.023 15.25 17.0217 15.25 17.0205C15.25 17.0192 15.25 17.0179 15.25 17.0167C15.25 17.0154 15.25 17.0142 15.25 17.0129C15.25 17.0116 15.25 17.0104 15.25 17.0091C15.25 17.0079 15.25 17.0066 15.25 17.0054C15.25 17.0041 15.25 17.0028 15.25 17.0016C15.25 17.0003 15.25 16.9991 15.25 16.9978C15.25 16.9965 15.25 16.9953 15.25 16.994C15.25 16.9928 15.25 16.9915 15.25 16.9903C15.25 16.989 15.25 16.9878 15.25 16.9865C15.25 16.9852 15.25 16.984 15.25 16.9827C15.25 16.9815 15.25 16.9802 15.25 16.979C15.25 16.9777 15.25 16.9765 15.25 16.9752C15.25 16.9739 15.25 16.9727 15.25 16.9714C15.25 16.9702 15.25 16.9689 15.25 16.9677C15.25 16.9664 15.25 16.9652 15.25 16.9639C15.25 16.9627 15.25 16.9614 15.25 16.9602C15.25 16.9589 15.25 16.9576 15.25 16.9564C15.25 16.9551 15.25 16.9539 15.25 16.9526C15.25 16.9514 15.25 16.9501 15.25 16.9489C15.25 16.9476 15.25 16.9464 15.25 16.9451C15.25 16.9439 15.25 16.9426 15.25 16.9414C15.25 16.9401 15.25 16.9389 15.25 16.9376C15.25 16.9364 15.25 16.9351 15.25 16.9339C15.25 16.9326 15.25 16.9314 15.25 16.9301C15.25 16.9289 15.25 16.9276 15.25 16.9264C15.25 16.9251 15.25 16.9239 15.25 16.9226C15.25 16.9214 15.25 16.9201 15.25 16.9189C15.25 16.9176 15.25 16.9164 15.25 16.9151C15.25 16.9139 15.25 16.9126 15.25 16.9114C15.25 16.9101 15.25 16.9089 15.25 16.9077C15.25 16.9064 15.25 16.9052 15.25 16.9039C15.25 16.9027 15.25 16.9014 15.25 16.9002C15.25 16.8989 15.25 16.8977 15.25 16.8964C15.25 16.8952 15.25 16.8939 15.25 16.8927C15.25 16.8915 15.25 16.8902 15.25 16.889C15.25 16.8877 15.25 16.8865 15.25 16.8852C15.25 16.884 15.25 16.8827 15.25 16.8815C15.25 16.8803 15.25 16.879 15.25 16.8778C15.25 16.8765 15.25 16.8753 15.25 16.874C15.25 16.8728 15.25 16.8716 15.25 16.8703C15.25 16.8691 15.25 16.8678 15.25 16.8666C15.25 16.8653 15.25 16.8641 15.25 16.8629C15.25 16.8616 15.25 16.8604 15.25 16.8591C15.25 16.8579 15.25 16.8566 15.25 16.8554C15.25 16.8542 15.25 16.8529 15.25 16.8517C15.25 16.8504 15.25 16.8492 15.25 16.848C15.25 16.8467 15.25 16.8455 15.25 16.8442C15.25 16.843 15.25 16.8418 15.25 16.8405C15.25 16.8393 15.25 16.8381 15.25 16.8368C15.25 16.8356 15.25 16.8343 15.25 16.8331C15.25 16.8319 15.25 16.8306 15.25 16.8294C15.25 16.8281 15.25 16.8269 15.25 16.8257C15.25 16.8244 15.25 16.8232 15.25 16.822C15.25 16.8207 15.25 16.8195 15.25 16.8183C15.25 16.817 15.25 16.8158 15.25 16.8145C15.25 16.8133 15.25 16.8121 15.25 16.8108C15.25 16.8096 15.25 16.8084 15.25 16.8071C15.25 16.8059 15.25 16.8047 15.25 16.8034C15.25 16.8022 15.25 16.801 15.25 16.7997C15.25 16.7985 15.25 16.7973 15.25 16.796C15.25 16.7948 15.25 16.7936 15.25 16.7923C15.25 16.7911 15.25 16.7899 15.25 16.7886C15.25 16.7874 15.25 16.7862 15.25 16.7849C15.25 16.7837 15.25 16.7825 15.25 16.7812C15.25 16.78 15.25 16.7788 15.25 16.7775C15.25 16.7763 15.25 16.7751 15.25 16.7738C15.25 16.7726 15.25 16.7714 15.25 16.7701C15.25 16.7689 15.25 16.7677 15.25 16.7665C15.25 16.7652 15.25 16.764 15.25 16.7628C15.25 16.7615 15.25 16.7603 15.25 16.7591C15.25 16.7579 15.25 16.7566 15.25 16.7554C15.25 16.7542 15.25 16.7529 15.25 16.7517C15.25 16.7505 15.25 16.7493 15.25 16.748C15.25 16.7468 15.25 16.7456 15.25 16.7443C15.25 16.7431 15.25 16.7419 15.25 16.7407C15.25 16.7394 15.25 16.7382 15.25 16.737C15.25 16.7358 15.25 16.7345 15.25 16.7333C15.25 16.7321 15.25 16.7309 15.25 16.7296C15.25 16.7284 15.25 16.7272 15.25 16.7259C15.25 16.7247 15.25 16.7235 15.25 16.7223C15.25 16.7211 15.25 16.7198 15.25 16.7186C15.25 16.7174 15.25 16.7162 15.25 16.7149C15.25 16.7137 15.25 16.7125 15.25 16.7113C15.25 16.71 15.25 16.7088 15.25 16.7076C15.25 16.7064 15.25 16.7051 15.25 16.7039C15.25 16.7027 15.25 16.7015 15.25 16.7003C15.25 16.699 15.25 16.6978 15.25 16.6966C15.25 16.6954 15.25 16.6942 15.25 16.6929C15.25 16.6917 15.25 16.6905 15.25 16.6893C15.25 16.688 15.25 16.6868 15.25 16.6856C15.25 16.6844 15.25 16.6832 15.25 16.6819C15.25 16.6807 15.25 16.6795 15.25 16.6783C15.25 16.6771 15.25 16.6759 15.25 16.6746C15.25 16.6734 15.25 16.6722 15.25 16.671C15.25 16.6698 15.25 16.6685 15.25 16.6673C15.25 16.6661 15.25 16.6649 15.25 16.6637C15.25 16.6625 15.25 16.6612 15.25 16.66C15.25 16.6588 15.25 16.6576 15.25 16.6564C15.25 16.6552 15.25 16.6539 15.25 16.6527C15.25 16.6515 15.25 16.6503 15.25 16.6491C15.25 16.6479 15.25 16.6466 15.25 16.6454C15.25 16.6442 15.25 16.643 15.25 16.6418C15.25 16.6406 15.25 16.6394 15.25 16.6381C15.25 16.6369 15.25 16.6357 15.25 16.6345C15.25 16.6333 15.25 16.6321 15.25 16.6309C15.25 16.6297 15.25 16.6284 15.25 16.6272C15.25 16.626 15.25 16.6248 15.25 16.6236C15.25 16.6224 15.25 16.6212 15.25 16.62C15.25 16.6187 15.25 16.6175 15.25 16.6163C15.25 16.6151 15.25 16.6139 15.25 16.6127C15.25 16.6115 15.25 16.6103 15.25 16.6091C15.25 16.6079 15.25 16.6066 15.25 16.6054C15.25 16.6042 15.25 16.603 15.25 16.6018C15.25 16.6006 15.25 16.5994 15.25 16.5982C15.25 16.597 15.25 16.5958 15.25 16.5946C15.25 16.5933 15.25 16.5921 15.25 16.5909C15.25 16.5897 15.25 16.5885 15.25 16.5873C15.25 16.5861 15.25 16.5849 15.25 16.5837C15.25 16.5825 15.25 16.5813 15.25 16.5801C15.25 16.5789 15.25 16.5777 15.25 16.5764C15.25 16.5752 15.25 16.574 15.25 16.5728C15.25 16.5716 15.25 16.5704 15.25 16.5692C15.25 16.568 15.25 16.5668 15.25 16.5656C15.25 16.5644 15.25 16.5632 15.25 16.562C15.25 16.5608 15.25 16.5596 15.25 16.5584C15.25 16.5572 15.25 16.556 15.25 16.5548C15.25 16.5536 15.25 16.5524 15.25 16.5512C15.25 16.55 15.25 16.5488 15.25 16.5476C15.25 16.5463 15.25 16.5451 15.25 16.5439C15.25 16.5427 15.25 16.5415 15.25 16.5403C15.25 16.5391 15.25 16.5379 15.25 16.5367C15.25 16.5355 15.25 16.5343 15.25 16.5331C15.25 16.5319 15.25 16.5307 15.25 16.5295C15.25 16.5283 15.25 16.5271 15.25 16.5259C15.25 16.5247 15.25 16.5235 15.25 16.5223C15.25 16.5211 15.25 16.5199 15.25 16.5188C15.25 16.5176 15.25 16.5164 15.25 16.5152C15.25 16.514 15.25 16.5128 15.25 16.5116C15.25 16.5104 15.25 16.5092 15.25 16.508C15.25 16.5068 15.25 16.5056 15.25 16.5044C15.25 16.5032 15.25 16.502 15.25 16.5008C15.25 16.4996 15.25 16.4984 15.25 16.4972C15.25 16.496 15.25 16.4948 15.25 16.4936H13.75ZM11.5 14.2441C12.7428 14.2441 13.75 15.2512 13.75 16.4936H15.25C15.25 14.4224 13.5709 12.7441 11.5 12.7441L11.5 14.2441ZM5.25 16.4936C5.25 15.2512 6.25719 14.2441 7.5 14.2441L7.5 12.7441C5.4291 12.7441 3.75 14.4224 3.75 16.4936H5.25ZM15.75 9V14H17.25V9H15.75ZM14 12.25H19V10.75H14V12.25Z" fill="white"/>
</svg>
