<svg width="46" height="46" viewBox="0 0 46 46" fill="none" xmlns="http://www.w3.org/2000/svg">
<path d="M7.36328 19.7886V32.8645C7.36328 32.9933 7.4675 33.0973 7.59611 33.0973H16.1902L16.1905 19.5555H7.5957C7.4671 19.5555 7.36288 19.6598 7.36288 19.7881L7.36328 19.7886ZM10.1117 22.1946H13.9272V24.5226H10.1117V22.1946ZM10.1117 27.3165H13.9272V29.6445H10.1117V27.3165Z" fill="url(#paint0_linear_52_173)"/>
<path d="M38.4041 19.5558H29.8093V33.0975H38.4034C38.5323 33.0975 38.6362 32.9933 38.6362 32.8647L38.6365 19.7882C38.6365 19.6599 38.5323 19.5557 38.4037 19.5557L38.4041 19.5558ZM35.8885 29.6443H32.073V27.3163H35.8885V29.6443ZM35.8885 24.5224H32.073V22.1944H35.8885V24.5224Z" fill="url(#paint1_linear_52_173)"/>
<path d="M39.3675 18.2686L30.1964 13.2653C30.0834 13.2035 29.8881 13.1539 29.7592 13.1539H27.019L23.2592 9.2745V6.71243C23.5885 6.85592 23.9373 6.92651 24.3173 6.92651H24.3175C24.9328 6.92651 25.5505 6.74092 26.1476 6.56226C26.7305 6.38667 27.3335 6.20647 27.9182 6.20647C28.3823 6.20647 28.7956 6.31942 29.183 6.55173C29.2153 6.57124 29.2551 6.57201 29.288 6.55327C29.3203 6.53453 29.3406 6.49988 29.3406 6.46265L29.3408 2.30445C29.3408 2.26851 29.3213 2.23412 29.2905 2.21538C28.8693 1.96305 28.4203 1.84009 27.9182 1.84009C27.3027 1.84009 26.685 2.02568 26.0877 2.20434C25.5048 2.37992 24.9021 2.56089 24.3173 2.56089C23.9343 2.56089 23.5868 2.47875 23.259 2.3214V2.30446C23.259 2.16045 23.143 2.04417 22.9992 2.04417C22.8552 2.04417 22.7395 2.16045 22.7395 2.30446V9.27609L18.9814 13.1543H16.2412C16.1123 13.1543 15.917 13.2041 15.804 13.2657L6.63293 18.269C6.35056 18.4227 6.38265 18.5475 6.70377 18.5475H15.6994L23.0009 11.0147L30.3024 18.5475H39.2981C39.6192 18.5475 39.6513 18.4227 39.3689 18.269L39.3675 18.2686Z" fill="url(#paint2_linear_52_173)"/>
<path d="M17.0055 18.7554V34.7266C17.0055 34.8555 17.1098 34.9595 17.2384 34.9595H28.762C28.8909 34.9595 28.9948 34.8552 28.9948 34.7266V18.7554L23.0002 12.5778L17.0055 18.7554ZM25.0371 32.5153H20.9634V27.6263H25.0371V32.5153ZM25.9443 19.5197C25.9443 21.1456 24.6264 22.4638 23.0003 22.4638C21.3741 22.4638 20.0562 21.1456 20.0562 19.5197C20.0562 17.893 21.3741 16.5756 23.0003 16.5756C24.6264 16.5759 25.9443 17.8933 25.9443 19.5197Z" fill="url(#paint3_linear_52_173)"/>
<path d="M22.7056 17.5568V19.4356L21.8392 20.8292C21.7537 20.9673 21.7961 21.1491 21.9342 21.2348C21.9827 21.2651 22.0358 21.2792 22.0895 21.2792C22.1881 21.2792 22.2838 21.2294 22.3398 21.1398L23.2502 19.6751C23.279 19.6292 23.2944 19.5747 23.2944 19.5198V17.5569C23.2944 17.3946 23.163 17.2629 23 17.2629C22.837 17.2627 22.7055 17.3944 22.7055 17.5569L22.7056 17.5568Z" fill="url(#paint4_linear_52_173)"/>
<defs>
<linearGradient id="paint0_linear_52_173" x1="11.7767" y1="19.5555" x2="11.7767" y2="33.0973" gradientUnits="userSpaceOnUse">
<stop stop-color="#48CAE4"/>
<stop offset="1" stop-color="#48CAE4"/>
</linearGradient>
<linearGradient id="paint1_linear_52_173" x1="34.2229" y1="19.5557" x2="34.2229" y2="33.0975" gradientUnits="userSpaceOnUse">
<stop stop-color="#48CAE4"/>
<stop offset="1" stop-color="#48CAE4"/>
</linearGradient>
<linearGradient id="paint2_linear_52_173" x1="23.0009" y1="1.84009" x2="23.0009" y2="18.5475" gradientUnits="userSpaceOnUse">
<stop stop-color="#48CAE4"/>
<stop offset="1" stop-color="#48CAE4"/>
</linearGradient>
<linearGradient id="paint3_linear_52_173" x1="23.0002" y1="12.5778" x2="23.0002" y2="34.9595" gradientUnits="userSpaceOnUse">
<stop stop-color="#48CAE4"/>
<stop offset="1" stop-color="#48CAE4"/>
</linearGradient>
<linearGradient id="paint4_linear_52_173" x1="22.5447" y1="17.2629" x2="22.5447" y2="21.2792" gradientUnits="userSpaceOnUse">
<stop stop-color="#48CAE4"/>
<stop offset="1" stop-color="#48CAE4"/>
</linearGradient>
</defs>
</svg>
