<svg width="24" height="24" viewBox="0 0 24 24" fill="none" xmlns="http://www.w3.org/2000/svg">
<path d="M11.5 4.5L11.8354 3.82918C11.6243 3.72361 11.3757 3.72361 11.1646 3.82918L11.5 4.5ZM8.5 12.5V11.75H7.75V12.5H8.5ZM12.5 12.5H13.25V11.75H12.5V12.5ZM4 19.25H19V17.75H4V19.25ZM11.1646 3.82918L5.16459 6.82919L5.83541 8.17083L11.8354 5.17082L11.1646 3.82918ZM4 10.25H19V8.75001H4V10.25ZM17.8354 6.82919L11.8354 3.82918L11.1646 5.17082L17.1646 8.17083L17.8354 6.82919ZM4.75 9.50001V18.5H6.25V9.50001H4.75ZM16.75 9.50001V18.5H18.25V9.50001H16.75ZM9.25 18.5V12.5H7.75V18.5H9.25ZM8.5 13.25H12.5V11.75H8.5V13.25ZM11.75 12.5V18.5H13.25V12.5H11.75Z" fill="white"/>
</svg>
