<svg width="44" height="14" viewBox="0 0 44 14" fill="none" xmlns="http://www.w3.org/2000/svg">
<path fill-rule="evenodd" clip-rule="evenodd" d="M4 3C1.79086 3 5.4282e-07 4.79086 3.49691e-07 7C1.56562e-07 9.20914 1.79086 11 4 11C6.20914 11 8 9.20914 8 7C8 4.79086 6.20914 3 4 3Z" fill="white"/>
<path d="M16 7C16 3.68629 18.6863 0.999999 22 0.999999C25.3137 1 28 3.68629 28 7C28 10.3137 25.3137 13 22 13C18.6863 13 16 10.3137 16 7Z" stroke="white" stroke-width="2"/>
<path fill-rule="evenodd" clip-rule="evenodd" d="M40 3C37.7909 3 36 4.79086 36 7C36 9.20914 37.7909 11 40 11C42.2091 11 44 9.20914 44 7C44 4.79086 42.2091 3 40 3Z" fill="white"/>
</svg>
