<svg width="20" height="20" viewBox="0 0 20 20" fill="none" xmlns="http://www.w3.org/2000/svg">
<path d="M16.624 3.67747C16.2166 3.26985 15.7328 2.9465 15.2004 2.72589C14.668 2.50527 14.0973 2.39172 13.521 2.39172C12.9447 2.39172 12.374 2.50527 11.8416 2.72589C11.3091 2.9465 10.8254 3.26985 10.418 3.67747L9.57241 4.52302L8.72685 3.67747C7.90388 2.85449 6.78768 2.39215 5.62382 2.39215C4.45996 2.39215 3.34377 2.85449 2.52079 3.67747C1.69782 4.50044 1.23547 5.61663 1.23547 6.7805C1.23547 7.94436 1.69782 9.06055 2.52079 9.88353L3.36635 10.7291L9.57241 16.9351L15.7785 10.7291L16.624 9.88353C17.0316 9.4761 17.355 8.99235 17.5756 8.45993C17.7962 7.9275 17.9098 7.35682 17.9098 6.7805C17.9098 6.20417 17.7962 5.6335 17.5756 5.10107C17.355 4.56864 17.0316 4.08489 16.624 3.67747V3.67747Z" stroke="white" stroke-width="1.91447" stroke-linecap="round" stroke-linejoin="round"/>
</svg>
