<svg width="47" height="14" viewBox="0 0 47 14" fill="none" xmlns="http://www.w3.org/2000/svg">
<path fill-rule="evenodd" clip-rule="evenodd" d="M25 3C22.7909 3 21 4.79086 21 7C21 9.20914 22.7909 11 25 11C27.2091 11 29 9.20914 29 7C29 4.79086 27.2091 3 25 3Z" fill="white"/>
<path d="M1 7C1 3.68629 3.68629 0.999999 7 0.999999C10.3137 1 13 3.68629 13 7C13 10.3137 10.3137 13 7 13C3.68629 13 1 10.3137 1 7Z" stroke="white" stroke-width="2"/>
<path fill-rule="evenodd" clip-rule="evenodd" d="M43 3C40.7909 3 39 4.79086 39 7C39 9.20914 40.7909 11 43 11C45.2091 11 47 9.20914 47 7C47 4.79086 45.2091 3 43 3Z" fill="white"/>
</svg>
