<svg width="24" height="24" viewBox="0 0 24 24" fill="none" xmlns="http://www.w3.org/2000/svg">
<path d="M11.5 2.6333L12.1508 1.87404C11.7763 1.55305 11.2237 1.55305 10.8492 1.87404L11.5 2.6333ZM2.6333 10.2333L1.98251 9.47404L1.6333 9.77337V10.2333H2.6333ZM8.96663 20.3666V21.3666C9.51892 21.3666 9.96663 20.9189 9.96663 20.3666H8.96663ZM14.0333 20.3666H13.0333C13.0333 20.9189 13.481 21.3666 14.0333 21.3666V20.3666ZM20.3666 10.2333H21.3666V9.77337L21.0174 9.47404L20.3666 10.2333ZM3.89997 21.3666H8.96663V19.3666H3.89997V21.3666ZM21.0174 9.47404L12.1508 1.87404L10.8492 3.39256L19.7158 10.9926L21.0174 9.47404ZM10.8492 1.87404L1.98251 9.47404L3.28409 10.9926L12.1508 3.39256L10.8492 1.87404ZM9.96663 20.3666V16.5666H7.96663V20.3666H9.96663ZM13.0333 16.5666V20.3666H15.0333V16.5666H13.0333ZM14.0333 21.3666H19.1V19.3666H14.0333V21.3666ZM21.3666 19.1V10.2333H19.3666V19.1H21.3666ZM1.6333 10.2333V19.1H3.6333V10.2333H1.6333ZM11.5 15.0333C12.3468 15.0333 13.0333 15.7198 13.0333 16.5666H15.0333C15.0333 14.6152 13.4514 13.0333 11.5 13.0333V15.0333ZM11.5 13.0333C9.54856 13.0333 7.96663 14.6152 7.96663 16.5666H9.96663C9.96663 15.7198 10.6531 15.0333 11.5 15.0333V13.0333ZM19.1 21.3666C20.3518 21.3666 21.3666 20.3518 21.3666 19.1H19.3666C19.3666 19.2472 19.2472 19.3666 19.1 19.3666V21.3666ZM3.89997 19.3666C3.75269 19.3666 3.6333 19.2472 3.6333 19.1H1.6333C1.6333 20.3518 2.64812 21.3666 3.89997 21.3666V19.3666Z" fill="white"/>
</svg>
