<svg width="24" height="24" viewBox="0 0 24 24" fill="none" xmlns="http://www.w3.org/2000/svg">
<g clip-path="url(#clip0_130_403)">
<path d="M19.5814 6.86201C19.5811 6.85612 19.5804 6.85023 19.5794 6.84438C19.5566 6.81175 19.5285 6.78368 19.505 6.75171C19.3344 6.51934 19.1539 6.2957 18.9633 6.08073C18.9111 6.02199 18.8588 5.9639 18.8053 5.90646C18.6091 5.69631 18.4033 5.49591 18.1879 5.30534C18.1481 5.27008 18.1109 5.23356 18.0711 5.19895C17.5402 4.7442 16.959 4.35174 16.3388 4.02935C16.314 4.01631 16.2879 4.00522 16.2625 3.99214C15.9863 3.85179 15.7031 3.72562 15.414 3.61422C15.3487 3.59074 15.2893 3.56852 15.2273 3.54894C14.9701 3.45627 14.709 3.37512 14.4441 3.30548C14.3657 3.2846 14.2874 3.26307 14.2078 3.24479C13.9467 3.18409 13.6857 3.13774 13.4187 3.09988C13.3378 3.08814 13.2581 3.07246 13.1765 3.06267C12.4889 2.97911 11.7938 2.97911 11.1062 3.06267C11.0246 3.07246 10.945 3.08814 10.864 3.09988C10.5971 3.13774 10.3334 3.18409 10.0749 3.24479C9.99527 3.26307 9.91695 3.2846 9.83863 3.30548C9.57188 3.37508 9.31083 3.45623 9.0554 3.54894C8.99012 3.57112 8.93073 3.59334 8.86874 3.61422C8.57965 3.72562 8.29642 3.85175 8.02023 3.99214C7.99476 4.00518 7.96868 4.01627 7.94386 4.02935C7.3216 4.3514 6.73842 4.74382 6.20573 5.19895C6.16592 5.23352 6.12871 5.27008 6.08889 5.30534C5.87133 5.49679 5.6655 5.69719 5.47145 5.90646C5.41795 5.9639 5.36571 6.02199 5.31351 6.08073C5.12248 6.29524 4.9419 6.51889 4.77179 6.75167C4.74831 6.78364 4.72024 6.81172 4.69737 6.84434C4.69439 6.85004 4.69175 6.85593 4.68953 6.86197C2.43829 10.0169 2.43829 14.2532 4.68953 17.4081C4.69175 17.4141 4.69435 17.42 4.69737 17.4257C4.7202 17.4583 4.74827 17.4864 4.77179 17.5184C4.94194 17.7508 5.12248 17.9744 5.31351 18.1894C5.36571 18.2481 5.41795 18.3062 5.47145 18.3636C5.66814 18.5738 5.87393 18.7742 6.08889 18.9648C6.12871 19 6.16592 19.0365 6.20573 19.0712C6.73655 19.5259 7.31777 19.9184 7.93797 20.2408C7.96279 20.2538 7.98887 20.2649 8.01434 20.278C8.29053 20.4183 8.57373 20.5445 8.86285 20.6559C8.92813 20.6794 8.98752 20.7016 9.04951 20.7212C9.30666 20.8138 9.56775 20.895 9.83274 20.9646C9.91106 20.9855 9.98938 21.007 10.069 21.0253C10.3301 21.086 10.5911 21.1324 10.8581 21.1702C10.939 21.182 11.0187 21.1976 11.1003 21.2074C11.7879 21.291 12.483 21.291 13.1706 21.2074C13.2522 21.1976 13.3318 21.182 13.4128 21.1702C13.6797 21.1324 13.9434 21.086 14.2019 21.0253C14.2815 21.007 14.3598 20.9855 14.4382 20.9646C14.7053 20.895 14.9664 20.8139 15.2214 20.7212C15.2867 20.699 15.3461 20.6768 15.4081 20.6559C15.6971 20.5445 15.9804 20.4184 16.2566 20.278C16.282 20.2649 16.3081 20.2538 16.3329 20.2408C16.9531 19.9183 17.5344 19.5259 18.0652 19.0712C18.105 19.0365 18.1422 19 18.182 18.9648C18.3996 18.7737 18.6054 18.5734 18.7995 18.3636C18.853 18.3062 18.9052 18.2481 18.9574 18.1894C19.1484 17.9744 19.329 17.7508 19.4991 17.5184C19.5226 17.4864 19.5507 17.4583 19.5735 17.4257C19.5765 17.42 19.5792 17.4141 19.5814 17.4081C21.8326 14.2532 21.8326 10.017 19.5814 6.86201ZM18.8367 8.09693C19.4609 9.12495 19.8378 10.2839 19.9377 11.4824H16.0281C15.9803 10.7047 15.8579 9.93341 15.6626 9.1791C16.767 8.97228 17.8359 8.60782 18.8367 8.09693ZM13.7992 4.48296C13.8358 4.49145 13.871 4.50319 13.9075 4.51168C14.1412 4.56652 14.3729 4.62916 14.5994 4.70748C14.634 4.71923 14.6679 4.73295 14.7019 4.74535C14.9264 4.82367 15.1477 4.91048 15.3644 5.00643C15.4022 5.02406 15.4395 5.04364 15.4773 5.06127C15.6849 5.16006 15.8876 5.26687 16.0856 5.38175L16.2161 5.46073C16.4041 5.57561 16.5869 5.69853 16.7644 5.82951C16.8101 5.86278 16.8558 5.89479 16.9008 5.93131C17.0749 6.06184 17.2415 6.20173 17.4008 6.351C17.4425 6.38886 17.4856 6.42607 17.5267 6.46523C17.6938 6.62383 17.8531 6.79156 18.0071 6.96519C18.0267 6.98802 18.0476 7.0089 18.0672 7.03047C17.1834 7.45164 16.2472 7.75239 15.2835 7.92464C14.837 6.69733 14.2473 5.527 13.5264 4.43798C13.6171 4.45427 13.7098 4.46341 13.7992 4.48296ZM9.5515 11.4824C9.60297 10.7762 9.72321 10.0767 9.91049 9.3938C10.65 9.48164 11.3941 9.5252 12.1388 9.52432C12.8842 9.5241 13.6289 9.47943 14.369 9.39051C14.556 10.0745 14.6755 10.7751 14.726 11.4824H9.5515ZM14.726 12.7878C14.6746 13.494 14.5543 14.1935 14.367 14.8764C13.6275 14.7885 12.8835 14.745 12.1387 14.7459C11.3934 14.745 10.6487 14.7886 9.9085 14.8764C9.72176 14.1935 9.60221 13.494 9.55146 12.7878H14.726ZM12.1387 4.7284C12.8815 5.78113 13.4924 6.92098 13.9578 8.1224C13.3536 8.18657 12.7464 8.21881 12.1387 8.219C11.5318 8.21827 10.9252 8.18584 10.3216 8.12175C10.7876 6.92113 11.3978 5.78167 12.1387 4.7284ZM6.27109 6.9645C6.42448 6.79087 6.58438 6.62314 6.75146 6.46454C6.79257 6.42538 6.83567 6.38817 6.87744 6.35031C7.03844 6.20368 7.20511 6.06379 7.37739 5.93062C7.42244 5.89601 7.46811 5.86534 7.51381 5.82882C7.69133 5.6983 7.8741 5.57534 8.06207 5.46004L8.19259 5.38107C8.39058 5.26534 8.59334 5.15849 8.80089 5.06059C8.83875 5.04296 8.87596 5.02338 8.91382 5.00575C9.13051 4.90784 9.35179 4.82103 9.57632 4.74466C9.61024 4.73227 9.6416 4.71854 9.67877 4.7068C9.90525 4.63107 10.1357 4.56843 10.3706 4.51099C10.4072 4.5025 10.4424 4.49076 10.4796 4.48292C10.569 4.46334 10.6617 4.4542 10.7525 4.43787C10.0313 5.52708 9.44139 6.69764 8.99475 7.92517C8.03105 7.75293 7.09477 7.45218 6.21104 7.031C6.23062 7.00821 6.25151 6.98733 6.27109 6.9645ZM5.44086 8.09693C6.44135 8.60778 7.51006 8.97224 8.61423 9.1791C8.41922 9.93345 8.29703 10.7047 8.24938 11.4824H4.33979C4.43976 10.2839 4.81669 9.12495 5.44086 8.09693ZM5.44086 16.1733C4.81665 15.1453 4.43972 13.9863 4.33979 12.7878H8.24938C8.29726 13.5655 8.41964 14.3368 8.61488 15.0911C7.51052 15.2979 6.44158 15.6624 5.44086 16.1733ZM10.4783 19.7872C10.4418 19.7787 10.4065 19.767 10.37 19.7585C10.1363 19.7037 9.9046 19.641 9.67812 19.5627C9.64351 19.551 9.60959 19.5372 9.57563 19.5248C9.3511 19.4465 9.12986 19.3597 8.91314 19.2637C8.87528 19.2461 8.83806 19.2265 8.8002 19.2089C8.59266 19.1101 8.38989 19.0033 8.1919 18.8884L8.06138 18.8095C7.87341 18.6946 7.69065 18.5717 7.51312 18.4407C7.46742 18.4074 7.42176 18.3754 7.37671 18.3389C7.20266 18.2083 7.03599 18.0684 6.87675 17.9192C6.83499 17.8813 6.79189 17.8441 6.75077 17.805C6.58369 17.6464 6.42444 17.4786 6.2704 17.305C6.25082 17.2822 6.22994 17.2613 6.21036 17.2397C7.09412 16.8185 8.03036 16.5178 8.99406 16.3455C9.44051 17.5729 10.0303 18.7432 10.7511 19.8322C10.6604 19.8159 10.5677 19.8068 10.4783 19.7872ZM12.1387 19.5418C11.396 18.4891 10.7851 17.3492 10.3197 16.1478C11.5285 16.0177 12.7477 16.0177 13.9565 16.1478C13.4906 17.3484 12.8797 18.4885 12.1387 19.5418ZM18.0064 17.3057C17.853 17.4793 17.6931 17.647 17.5261 17.8056C17.4849 17.8448 17.4418 17.882 17.4001 17.9199C17.2391 18.067 17.0724 18.2069 16.9001 18.3396C16.8551 18.3741 16.8094 18.4081 16.7637 18.4414C16.5862 18.5719 16.4034 18.6948 16.2155 18.8101L16.0849 18.8891C15.8874 19.0044 15.6846 19.1112 15.4766 19.2096C15.4388 19.2272 15.4016 19.2468 15.3637 19.2644C15.147 19.3623 14.9257 19.4492 14.7012 19.5255C14.6673 19.5379 14.6359 19.5516 14.5988 19.5634C14.3723 19.6391 14.1419 19.7017 13.9069 19.7592C13.8703 19.7677 13.8351 19.7794 13.7979 19.7873C13.7085 19.8068 13.6158 19.816 13.5251 19.8323C14.2459 18.7433 14.8357 17.573 15.2821 16.3457C16.2458 16.5179 17.1821 16.8187 18.0658 17.2398C18.0469 17.262 18.026 17.2829 18.0064 17.3057ZM18.8367 16.1733C17.8362 15.6624 16.7675 15.298 15.6633 15.0911C15.8583 14.3368 15.9805 13.5655 16.0281 12.7878H19.9377C19.8378 13.9863 19.4608 15.1452 18.8367 16.1733Z" fill="white"/>
</g>
<defs>
<clipPath id="clip0_130_403">
<rect width="18.2701" height="18.2701" fill="white" transform="translate(3 3)"/>
</clipPath>
</defs>
</svg>
