<svg width="24" height="24" viewBox="0 0 24 24" fill="none" xmlns="http://www.w3.org/2000/svg">
<g clip-path="url(#clip0_130_444)">
<path d="M12.0617 2C6.51371 2 2 6.51371 2 12.0618C2 17.6099 6.51371 22.1235 12.0617 22.1235C17.6098 22.1235 22.1235 17.6098 22.1235 12.0617C22.1235 6.51365 17.6098 2 12.0617 2ZM12.0617 20.4306C7.44714 20.4306 3.69285 16.6764 3.69285 12.0618C3.69285 7.4472 7.44714 3.69285 12.0617 3.69285C16.6763 3.69285 20.4306 7.44714 20.4306 12.0618C20.4306 16.6765 16.6763 20.4306 12.0617 20.4306Z" fill="white"/>
<path d="M12.0618 5.77783C10.0541 5.77783 8.42065 7.41126 8.42065 9.41899C8.42065 9.88644 8.79963 10.2654 9.26708 10.2654C9.73453 10.2654 10.1135 9.88644 10.1135 9.41899C10.1135 8.3447 10.9875 7.47068 12.0618 7.47068C13.1361 7.47068 14.0101 8.3447 14.0101 9.41899C14.0101 10.4933 13.1361 11.3673 12.0618 11.3673C11.5944 11.3673 11.2154 11.7463 11.2154 12.2137V14.1275C11.2154 14.5949 11.5944 14.9739 12.0618 14.9739C12.5293 14.9739 12.9082 14.5949 12.9082 14.1275V12.9608C14.5092 12.5783 15.703 11.1354 15.703 9.41893C15.703 7.41126 14.0695 5.77783 12.0618 5.77783Z" fill="white"/>
<path d="M12.0618 18.1892C12.7162 18.1892 13.2467 17.6587 13.2467 17.0043C13.2467 16.3499 12.7162 15.8193 12.0618 15.8193C11.4073 15.8193 10.8768 16.3499 10.8768 17.0043C10.8768 17.6587 11.4073 18.1892 12.0618 18.1892Z" fill="white"/>
</g>
<defs>
<clipPath id="clip0_130_444">
<rect width="20.1235" height="20.1235" fill="white" transform="translate(2 2)"/>
</clipPath>
</defs>
</svg>
