<svg width="48" height="48" viewBox="0 0 48 48" fill="none" xmlns="http://www.w3.org/2000/svg">
<path d="M39.3115 34.604H36.8424V33.0454C36.8424 32.8393 36.6738 32.6707 36.4678 32.6707H36.1306V21.2431H36.4678C36.6738 21.2431 36.8424 21.0745 36.8424 20.8685V19.1225H38.7757C38.9818 19.1225 39.1504 18.9539 39.1504 18.7479V16.2601C39.1504 16.1215 39.0717 15.9903 38.9481 15.9267L24.5759 8.45557V6.51856H27.9517C28.079 6.51856 28.1989 6.45487 28.2664 6.34622C28.3338 6.23757 28.3451 6.10268 28.2889 5.98654L27.6744 4.66771L28.2926 3.34888C28.345 3.23273 28.3376 3.09785 28.2701 2.9892C28.2027 2.88055 28.0828 2.81685 27.9554 2.81685H24.4335C24.3286 2.70071 24.1825 2.62952 24.0139 2.62952C23.7029 2.62952 23.4519 2.88055 23.4519 3.19152V8.4556L9.07974 15.9301C8.9561 15.9938 8.87742 16.1212 8.87742 16.2636V18.7513C8.87742 18.9574 9.04602 19.126 9.25209 19.126H11.1854V20.8682C11.1854 21.0743 11.354 21.2429 11.5601 21.2429H11.8973V32.6705H11.5601C11.354 32.6705 11.1854 32.8391 11.1854 33.0451V34.6038H8.71634C8.40537 34.6038 8.15434 34.8548 8.15434 35.1658C8.15434 35.4767 8.40537 35.7278 8.71634 35.7278H39.3077C39.6187 35.7278 39.8697 35.4767 39.8697 35.1658C39.8735 34.8548 39.6187 34.6038 39.3115 34.6038L39.3115 34.604ZM21.8673 32.6707H21.5301C21.324 32.6707 21.1554 32.8393 21.1554 33.0454V34.604H16.9104V33.0454C16.9104 32.8393 16.7418 32.6707 16.5358 32.6707H16.1986V21.2431H16.5358C16.7418 21.2431 16.9104 21.0745 16.9104 20.8684V19.1225H21.1517V20.8684C21.1517 21.0745 21.3203 21.2431 21.5263 21.2431H21.8635V32.6707H21.8673ZM24.0142 15.8068C22.9501 15.8068 22.0884 14.9451 22.0884 13.881C22.0884 12.817 22.9501 11.9553 24.0142 11.9553C25.0782 11.9553 25.9399 12.817 25.9399 13.881C25.9399 14.9451 25.0782 15.8068 24.0142 15.8068ZM31.8333 32.6707H31.4961C31.29 32.6707 31.1214 32.8393 31.1214 33.0454V34.604H26.8764V33.0454C26.8764 32.8393 26.7078 32.6707 26.5017 32.6707H26.1645V21.2431H26.5017C26.7078 21.2431 26.8764 21.0745 26.8764 20.8684V19.1225H31.1176V20.8684C31.1176 21.0745 31.2862 21.2431 31.4923 21.2431H31.8295V32.6707H31.8333Z" fill="url(#paint0_linear_52_167)"/>
<path d="M16.4228 6.36936H15.4261C15.1152 6.36936 14.8641 6.11833 14.8641 5.80736C14.8641 5.49639 15.1152 5.24536 15.4261 5.24536H16.4228C16.7337 5.24536 16.9848 5.49639 16.9848 5.80736C16.9848 6.11833 16.7337 6.36936 16.4228 6.36936Z" fill="url(#paint1_linear_52_167)"/>
<path d="M13.3357 6.36936H9.81381C9.50284 6.36936 9.25182 6.11833 9.25182 5.80736C9.25182 5.49639 9.50285 5.24536 9.81381 5.24536H13.3357C13.6466 5.24536 13.8977 5.49639 13.8977 5.80736C13.8977 6.11833 13.6466 6.36936 13.3357 6.36936Z" fill="url(#paint2_linear_52_167)"/>
<path d="M38.4085 9.52439H35.2613C34.9503 9.52439 34.6993 9.27336 34.6993 8.96239C34.6993 8.65142 34.9503 8.40039 35.2613 8.40039H38.4085C38.7195 8.40039 38.9705 8.65142 38.9705 8.96239C38.9705 9.27336 38.7195 9.52439 38.4085 9.52439Z" fill="url(#paint3_linear_52_167)"/>
<defs>
<linearGradient id="paint0_linear_52_167" x1="24.012" y1="2.62952" x2="24.012" y2="35.7278" gradientUnits="userSpaceOnUse">
<stop stop-color="#48CAE4"/>
<stop offset="1" stop-color="#48CAE4"/>
</linearGradient>
<linearGradient id="paint1_linear_52_167" x1="15.9245" y1="5.24536" x2="15.9245" y2="6.36936" gradientUnits="userSpaceOnUse">
<stop stop-color="#48CAE4"/>
<stop offset="1" stop-color="#48CAE4"/>
</linearGradient>
<linearGradient id="paint2_linear_52_167" x1="11.5747" y1="5.24536" x2="11.5747" y2="6.36936" gradientUnits="userSpaceOnUse">
<stop stop-color="#48CAE4"/>
<stop offset="1" stop-color="#48CAE4"/>
</linearGradient>
<linearGradient id="paint3_linear_52_167" x1="36.8349" y1="8.40039" x2="36.8349" y2="9.52439" gradientUnits="userSpaceOnUse">
<stop stop-color="#48CAE4"/>
<stop offset="1" stop-color="#48CAE4"/>
</linearGradient>
</defs>
</svg>
